<?xml version="1.0" standalone="no"?>
<!DOCTYPE svg PUBLIC "-//W3C//DTD SVG 1.1//EN" "http://www.w3.org/Graphics/SVG/1.1/DTD/svg11.dtd" >
<svg xmlns="http://www.w3.org/2000/svg">
<metadata>Generated by IcoMoon</metadata>
<defs>
<font id="icomoon" horiz-adv-x="1024">
<font-face units-per-em="1024" ascent="960" descent="-64" />
<missing-glyph horiz-adv-x="1024" />
<glyph unicode="&#x20;" horiz-adv-x="512" d="" />
<glyph unicode="&#xe900;" glyph-name="cheng-gong" d="M512 960c-282.769 0-512-229.231-512-512 0-282.771 229.231-512 512-512 282.771 0 512 229.229 512 512 0 282.769-229.231 512-512 512zM805.671 580.807l-331.147-331.149c-15.266-15.27-38.544-17.654-56.315-7.158-3.5 2.091-6.524 4.46-9.22 7.158v0c-0.002 0.004-0.006 0.006-0.006 0.006l-190.652 190.652c-24.841 24.841-27.806 37.73-9.71 55.83 16.529 16.529 36.407 6.549 75.246-32.29l157.892-157.892 298.377 298.377c36.789 36.789 56.5 51.039 77.341 30.198 18.091-18.096 6.289-35.636-11.806-53.732z" />
<glyph unicode="&#xe901;" glyph-name="jin-rong" d="M509.142 861.427c1.308 0 2.942 0.652 4.907 1.959 3.926 2.617 9.161 7.2 15.703 13.743 7.854 7.198 15.706 12.431 23.56 15.705 7.851 3.273 18.326 2.292 31.409-2.943 6.547-1.965 11.78-4.744 15.705-8.344s7.688-7.036 11.288-10.305c3.598-3.274 7.524-6.054 11.78-8.345 4.251-2.291 9.653-3.436 16.195-3.436s12.108 0.982 16.689 2.943c4.577 1.965 8.996 3.762 13.249 5.401 4.256 1.634 8.506 2.78 12.762 3.437 4.252 0.651 9.322 0 15.214-1.966 6.547-2.617 10.961-6.378 13.252-11.287s2.943-9.978 1.965-15.216c-0.983-5.235-3.274-10.469-6.873-15.702-3.6-5.24-8.014-9.491-13.252-12.764-12.432-7.85-21.923-15.869-28.466-24.046-6.542-8.181-13.089-16.852-19.631-26.015-3.274-4.577-6.872-9.815-10.797-15.701-3.927-5.891-7.525-11.781-10.799-17.672-3.925-7.199-8.176-14.066-12.759-20.613h-203.186c-4.577 7.855-9.159 15.379-13.74 22.578-3.926 6.543-8.177 13.085-12.759 19.632-4.581 6.542-8.506 12.433-11.78 17.666-6.542 9.815-13.904 18.486-22.086 26.012-8.177 7.523-16.196 14.234-24.046 20.124-8.508 5.891-14.397 13.904-17.67 24.047-3.269 10.146-0.327 18.816 8.832 26.015 4.581 3.268 9.815 4.577 15.706 3.925 5.889-0.657 12.107-1.966 18.648-3.925 6.547-1.965 12.927-3.93 19.142-5.891 6.217-1.965 11.945-2.291 17.178-0.982 9.165 1.965 16.033 5.398 20.614 10.305 4.583 4.908 12.433 10.96 23.557 18.159 8.508 5.234 17.997 7.036 28.466 5.402 10.472-1.639 18.322-5.076 23.556-10.31 2.622-3.274 5.401-6.053 8.345-8.343 2.947-2.292 6.053-4.415 9.326-6.381 3.274-2.615 6.869-4.908 10.798-6.867v0zM620.058 665.112c7.852-10.472 17.668-21.922 29.448-34.356 9.815-11.129 21.923-23.724 36.32-37.791 14.393-14.072 31.082-28.959 50.057-44.664 15.706-13.743 31.901-29.937 48.59-48.586s31.249-40.409 43.682-65.274c12.433-24.87 21.103-53.498 26.011-85.888 4.908-32.394 4.088-68.547-2.454-108.466-5.891-32.721-17.504-63.64-34.849-92.756-17.34-29.122-40.404-54.481-69.199-76.073-28.791-21.596-62.984-38.774-102.576-51.532-39.59-12.764-84.576-19.143-134.967-19.143-51.696 0-97.501 7.362-137.421 22.086-39.914 14.723-73.781 33.866-101.589 57.423-27.813 23.557-49.898 49.893-66.256 79.015-16.362 29.121-27.156 58.075-32.394 86.87-5.891 32.065-6.706 62.82-2.454 92.266 4.255 29.447 11.943 57.097 23.067 82.945 11.125 25.847 25.029 49.567 41.717 71.164 16.689 21.592 34.845 40.898 54.476 57.911 17.015 15.050 32.394 29.284 46.135 42.7 13.742 13.416 25.197 25.685 34.355 36.809 11.125 12.433 20.941 24.208 29.447 35.338l220.853 0.001zM512.032 363.044l-47.115 47.113c-6.542 6.547-11.124 11.455-13.74 14.724-5.239 4.582-12.107 8.344-20.614 11.292-8.506 2.943-15.706 1.141-21.595-5.402-5.235-7.198-6.542-14.23-3.926-21.103 2.617-6.873 5.566-12.269 8.834-16.195l14.723-13.741c7.199-7.855 15.054-16.362 23.556-25.522 9.815-10.472 20.614-21.596 32.394-33.372l-0.982-20.614h-66.744c-5.891 0-10.962-2.291-15.217-6.873-4.252-4.582-6.381-9.49-6.381-14.723 0-5.234 1.965-9.816 5.89-13.741 3.925-3.926 9.16-5.891 15.707-5.891h66.744v-34.355h-66.744c-5.891 0-10.962-1.797-15.217-5.398-4.252-3.599-6.381-8.344-6.381-14.235-0.651-5.233 1.146-9.652 5.398-13.252 4.257-3.599 9.653-5.396 16.2-5.396h66.744v-19.632c0.658-9.164 3.6-15.543 8.834-19.143 5.238-3.599 11.779-5.396 19.631-5.396 7.854-0.657 14.233 1.797 19.141 7.361 4.908 5.56 7.362 11.288 7.362 17.178v19.632h68.71c6.542 0 11.945 1.471 16.195 4.419 4.256 2.942 6.054 7.687 5.398 14.23 0 13.742-9.16 20.615-27.483 20.615h-62.818l0.983 33.372 63.802 0.983c9.16-0.657 15.702 1.145 19.631 5.396 3.926 4.257 5.887 9.327 5.887 15.218 0 5.234-2.124 9.978-6.378 14.23-4.251 4.256-10.963 6.384-20.122 6.384h-63.803v18.649c11.126 10.467 21.266 20.613 30.43 30.429 7.851 7.851 15.702 15.864 23.557 24.046 7.851 8.181 13.741 13.904 17.667 17.177 15.053 13.090 18.322 24.54 9.816 34.355-4.578 5.89-10.469 8.833-17.668 8.833s-13.741-2.616-19.631-7.85c-3.273-2.617-8.833-7.362-16.687-14.235-7.852-6.868-15.707-13.904-23.559-21.103-9.158-8.506-19.305-17.996-30.428-28.463v0z" />
<glyph unicode="&#xe902;" glyph-name="qiche" horiz-adv-x="1356" d="M1164.162 608.030c-22.517 189.532-114.393 327.646-227.101 327.405l-521.754-1.204c-112.828-0.241-203.981-138.837-225.656-328.489-79.232-47.202-120.053-143.293-119.812-254.435 0.12-82.604 23.119-156.538 67.311-208.437l0.482-184.354 204.944 0.482-0.241 108.011 671.789 1.686 0.241-108.011 204.944 0.482-0.482 184.354c43.951 52.019 66.589 126.194 66.348 208.798-0.12 110.901-41.422 206.871-121.016 253.712v0zM415.548 863.91l521.754 1.204c72.61 0.12 136.309-98.258 160.391-231.797-11.078 2.167-22.758 3.612-34.92 4.335 0 0.241 0.361 0.843 0 0.843-98.137-0.241-67.432-0.12-136.549-0.361-69.118-0.12-44.914-0.12-113.791-0.241l-504.414-1.204c-18.303 0-35.643-2.047-52.019-5.298 23.601 133.659 86.939 232.278 159.548 232.519v0zM280.083 259.191c-44.914-0.12-81.279 41.182-81.4 92.478-0.12 51.176 36.004 92.719 80.918 92.839 44.674 0.12 81.039-41.302 81.159-92.478 0.241-51.296-35.883-92.719-80.677-92.839v0zM912.978 276.651l-470.457-0.602c-73.332-0.12-74.897 126.314-0.241 126.435l470.457 1.204c68.636 0.12 68.877-126.916 0.241-127.037v0zM1075.537 261.118c-44.794-0.12-81.159 41.182-81.279 92.478-0.12 51.176 36.004 92.719 80.798 92.839s81.159-41.302 81.279-92.478c0-51.417-36.124-92.839-80.798-92.839v0z" />
<glyph unicode="&#xe903;" glyph-name="sheng-huo" d="M738.918 458.547c18.842 12.083 40.653 18.534 63.181 18.534 63.898 0 116.634-51.507 116.634-115.61 0-64.205-52.736-115.61-116.634-115.61-30.822 0-60.109 12.083-81.92 33.485-10.65-28.672-25.498-55.501-44.134-79.872-60.723-79.36-155.238-124.928-254.976-124.928s-194.253 45.568-254.976 124.928c-40.755 53.248-62.874 117.555-62.874 184.627v105.882c0 15.565 12.698 28.058 28.262 28.058h579.174c15.565 0 28.262-12.493 28.262-28.058v-31.437zM802.099 420.966c-32.87 0-60.109-26.419-60.109-59.494s27.238-59.494 60.109-59.494 60.109 26.419 60.109 59.494c0.102 32.973-27.136 59.494-60.109 59.494zM159.744 461.926v-77.926c0-53.965 17.51-105.677 49.971-148.787 49.869-66.458 128.512-104.653 211.354-104.653 82.944 0 161.587 38.195 211.456 104.653 32.358 43.11 49.869 94.822 49.869 148.787v77.926h-522.65zM245.76 782.029c-10.035 6.349-13.107 19.661-6.656 29.696 6.349 10.035 19.866 13.005 29.901 6.758 3.584-2.253 7.168-4.813 10.445-7.373 7.27-5.632 14.234-11.776 20.582-18.432 16.486-17.306 30.208-39.117 31.334-63.59 0.205-5.018 0-9.933-0.819-14.95-4.096-24.883-20.992-44.339-40.55-58.982-10.957-8.294-20.378-18.944-20.582-33.28-0.205-10.24 4.301-20.685 9.421-29.389 4.403-7.373 9.83-14.336 15.565-20.685 4.198-4.608 8.806-9.216 13.722-13.107 9.318-7.475 10.752-21.094 3.174-30.413-4.096-5.12-10.342-7.987-16.896-7.987-5.018 0-9.728 1.638-13.722 4.813-3.277 2.662-6.656 5.734-9.626 8.602-6.758 6.554-13.107 13.517-18.739 20.89-14.848 19.354-26.726 42.906-26.419 67.789 0.41 28.262 15.667 50.278 37.786 66.97 11.571 8.704 24.986 21.914 24.269 37.683-0.41 9.011-4.813 17.613-10.035 24.781-5.734 7.987-13.107 15.155-20.685 21.402-2.662 2.15-5.427 4.301-8.192 6.349-0.922 0.922-2.048 1.638-3.277 2.458zM391.782 782.029c-10.035 6.349-13.107 19.661-6.656 29.696s19.866 13.005 29.901 6.758c3.584-2.253 7.168-4.813 10.445-7.373 7.27-5.632 14.234-11.776 20.582-18.432 16.486-17.306 30.208-39.117 31.334-63.59 0.205-5.018 0-9.933-0.819-14.95-4.096-24.883-20.992-44.339-40.55-58.982-10.957-8.294-20.378-18.944-20.582-33.28-0.205-10.24 4.301-20.685 9.421-29.389 4.403-7.373 9.83-14.336 15.565-20.685 4.198-4.608 8.806-9.216 13.722-13.107 9.318-7.475 10.752-21.094 3.174-30.413-4.096-5.12-10.342-7.987-16.896-7.987-5.018 0-9.83 1.638-13.722 4.813-3.277 2.662-6.554 5.734-9.626 8.602-6.758 6.554-13.107 13.517-18.739 20.89-14.746 19.354-26.624 42.906-26.317 67.891 0.41 28.262 15.77 50.278 37.888 66.97 11.571 8.704 24.986 21.914 24.269 37.683-0.41 9.011-4.813 17.613-10.035 24.781-5.734 7.987-13.107 15.155-20.685 21.402-2.662 2.15-5.427 4.301-8.192 6.349-1.024 0.819-2.253 1.536-3.482 2.355zM537.907 782.029c-10.035 6.349-13.107 19.763-6.656 29.696 6.349 10.035 19.866 13.005 30.003 6.758 3.584-2.253 7.168-4.813 10.445-7.373 7.27-5.632 14.234-11.776 20.582-18.432 16.486-17.306 30.208-39.117 31.334-63.59 0.205-5.018 0-9.933-0.819-14.95-4.096-24.883-20.992-44.339-40.55-58.982-10.957-8.294-20.378-18.944-20.582-33.28-0.205-10.24 4.301-20.685 9.421-29.389 4.403-7.373 9.83-14.336 15.565-20.685 4.198-4.608 8.806-9.216 13.722-13.107 9.318-7.475 10.752-21.094 3.277-30.413-4.096-5.12-10.342-7.987-16.896-7.987-4.915 0-9.83 1.741-13.619 4.813-3.277 2.662-6.554 5.734-9.626 8.602-6.758 6.554-13.107 13.517-18.739 20.89-15.155 19.354-27.034 42.906-26.624 67.891 0.41 28.262 15.667 50.278 37.786 66.97 11.571 8.704 24.986 22.016 24.269 37.683-0.41 9.011-4.813 17.613-10.035 24.781-8.499 11.878-20.173 21.811-32.256 30.106zM697.344 484.864l-547.84-7.168-26.624-29.696 37.888-173.056 154.624-162.816 228.352 14.336 107.52 98.304 51.2 132.096-5.12 128zM307.2 192c-161.792 63.488-142.336 262.144-142.336 262.144 6.144 15.36 19.456 0 19.456 0 23.552-193.536 138.24-247.808 138.24-247.808 3.072-21.504-15.36-14.336-15.36-14.336z" />
<glyph unicode="&#xe904;" glyph-name="tui-jian" d="M396.438-56.869s-231.855 42.677-231.855 319.989c0 277.348 181.132 255.991 181.132 483.567 0 0 94.168-113.77 50.686-220.445 0 0 130.409 85.318 130.409 433.758 0 0 702.768-718.201 65.205-1023.963 0 0 43.518 106.675 29 170.673-14.482 63.998-108.686 92.413-130.409 163.542-21.723 71.092 21.723 149.316 57.964 177.767 7.241 7.095-383.986-113.77-152.132-504.887z" />
<glyph unicode="&#xe905;" glyph-name="xiao-qu" d="M143.81 831.289h16.816c27.891 0 50.508-21.705 50.508-48.472v-16.167c0 1.727-117.833-113.004-117.833-113.097v129.264c-0.001 26.767 22.615 48.472 50.508 48.472zM952.748 583.668c-94.909 85.065-268.926 240.988-366.857 328.706-62.141 55.707-80.313 56.571-142.732 0.155-97.221-87.858-270.717-244.336-367.167-329.34-41.776-36.793-57.945-58.916-0.061-58.916 31.595 0 34.187-25.917 34.187-63.621 0-138.181 0-453.42 0-453.42 0-35.729 30.175-64.67 67.324-64.67h673.302c37.18 0 67.324 28.941 67.324 64.67 0 0 0 311.243 0 450.766 0 40.743 8.515 66.274 33.94 66.274 53.254 0 35.976 27.83 0.741 59.395zM514.091 23.369c-158.035 0-286.142 122.985-286.142 274.695s128.108 274.696 286.142 274.696c158.037 0 286.144-122.986 286.144-274.696s-128.108-274.695-286.144-274.695zM421.497 281.912h185.188c13.946 0 25.24-10.86 25.24-24.251v-16.153c0-13.374-11.294-24.236-25.24-24.236h-185.188c-13.914 0-25.239 10.861-25.239 24.236v16.153c0 13.391 11.325 24.251 25.239 24.251zM421.497 362.703h185.188c13.946 0 25.24-10.859 25.24-24.25v-16.153c0-13.39-11.294-24.236-25.24-24.236h-185.188c-13.914 0-25.239 10.846-25.239 24.236v16.153c0 13.391 11.325 24.25 25.239 24.25zM505.668 362.703h16.846c13.947 0 25.24-10.859 25.24-24.25v-161.569c0-13.392-11.293-24.251-25.24-24.251h-16.846c-13.947 0-25.24 10.859-25.24 24.251v161.569c0.001 13.391 11.293 24.25 25.24 24.25zM599.219 429.212l-14.193 7.805c-11.725 6.48-26.596 2.422-33.199-9.055l-47.948-83.107c-6.601-11.477-2.466-26.026 9.258-32.505l14.163-7.806c11.755-6.48 26.626-2.422 33.23 9.055l47.947 83.107c6.602 11.463 2.467 26.027-9.257 32.506zM428.964 429.212l14.193 7.805c11.725 6.48 26.596 2.422 33.199-9.055l47.946-83.107c6.603-11.477 2.469-26.026-9.256-32.505l-14.163-7.806c-11.725-6.48-26.596-2.422-33.23 9.055l-47.948 83.107c-6.6 11.463-2.466 26.027 9.258 32.506zM514.091 508.12c120.857 0 218.82-94.044 218.82-210.056s-97.962-210.056-218.82-210.056c-120.856 0-218.787 94.044-218.787 210.056s97.931 210.056 218.787 210.056zM526.341 476.633c95.186 0 172.352-81.794 172.352-182.703 0-100.894-77.166-182.72-172.352-182.72-95.154 0-172.321 81.826-172.321 182.72-0.001 100.91 77.165 182.703 172.321 182.703z" />
<glyph unicode="&#xe906;" glyph-name="xiu-xian" d="M143.244 711.261c0 0.035 0 0.075 0 0.116 0 60.898 49.368 110.266 110.266 110.266 0.041 0 0.082 0 0.123 0h-0.006c0.035 0 0.075 0 0.116 0 60.898 0 110.266-49.368 110.266-110.266 0-0.041 0-0.082 0-0.123v0.006c0-0.035 0-0.075 0-0.116 0-60.898-49.368-110.266-110.266-110.266-0.041 0-0.082 0-0.123 0h0.006c-61.533-0.489-110.383 48.337-110.383 110.383zM405.039 817.734c8.797 8.797 8.797 22.947 0 31.744s-22.97 8.797-31.744 0l-34.676-34.676 31.744-31.744 34.676 34.676zM276.596 891.485h-0.977c0.002 0.119 0.004 0.259 0.004 0.4 0 11.915-9.659 21.574-21.574 21.574-0.149 0-0.297-0.002-0.445-0.004h0.022c-0.112 0.002-0.244 0.003-0.376 0.003-11.928 0-21.597-9.669-21.597-21.597 0-0.132 0.001-0.264 0.004-0.395v0.020-48.849h44.94v48.849zM383.535 688.291h48.849c0.112-0.002 0.244-0.003 0.376-0.003 11.928 0 21.597 9.669 21.597 21.597 0 0.14-0.001 0.28-0.004 0.42v-0.021c0.002 0.112 0.003 0.244 0.003 0.376 0 11.928-9.669 21.597-21.597 21.597-0.132 0-0.264-0.001-0.395-0.004h-48.829v-43.962zM338.618 607.232l34.676-34.676c8.774-8.797 22.947-8.797 31.744 0s8.797 22.947 0 31.744l-34.676 34.676-31.744-31.744zM71.959 687.802h48.826v45.428h-48.826c-0.126 0.003-0.274 0.004-0.423 0.004-11.902 0-21.551-9.649-21.551-21.551 0-0.149 0.002-0.297 0.005-0.445v0.022c-0.023-12.707 9.263-23.459 21.969-23.459zM136.401 783.034l31.744 31.744-34.676 34.676c-8.774 8.797-22.924 8.797-31.721 0s-8.797-22.947 0-31.744l34.653-34.676zM974.033-17.455h-923.578c0 18.572 41.030 32.721 111.36 41.519v37.609c0 26.857 21.969 48.826 48.849 48.826h163.607l105.030 105.030c3.35 3.601 8.115 5.846 13.405 5.846s10.055-2.245 13.395-5.835l0.010-0.011c3.622-3.349 5.882-8.125 5.882-13.428s-2.26-10.080-5.87-13.417l-0.012-0.011-33.676-33.722c7.796-6.842 11.729-16.105 11.729-26.833v-74.24c21.946 4.864 41.519 9.775 60.556 13.661l120.157 306.735c-9.751 11.729-26.368 21.993-45.405 29.789-26.857 10.752-54.225 11.706-70.33 3.91-5.865-1.955-12.684 0-14.662 5.841-6.33 16.617-26.857 33.722-53.737 44.451-19.991 7.82-40.029 10.752-55.668 7.82-8.797-0.977-15.639 8.308-11.729 16.105 70.307 130.909 228.585 191.465 369.734 136.751s217.344-206.103 181.69-349.207c-1.955-8.797-13.172-10.752-19.037-3.91-9.751 12.707-27.369 23.924-47.383 31.721-26.833 10.775-54.202 11.776-70.33 3.933-5.841-1.955-12.684 0-14.639 5.888-6.819 16.593-26.833 33.676-54.691 44.428-19.060 7.82-37.12 10.729-52.783 8.797l-110.359-281.809c10.752 0.977 20.992 1.932 30.743 1.932 84.527 0 115.27-57.623 215.412-57.623 100.561 0 131.375-38.097 132.329-40.541zM764.975 557.894c38.586-76.172-3.887-156.788-3.887-157.743-2.932-4.887-0.977-10.752 3.887-13.661 1.195-0.638 2.614-1.013 4.121-1.013 0.278 0 0.553 0.013 0.825 0.038l-0.035-0.003c0.021 0 0.046 0 0.071 0 3.662 0 6.874 1.926 8.677 4.821l0.025 0.043c1.978 3.933 38.586 73.751 14.662 149.946 94.278-78.15 81.594-188.509 80.593-193.396 0-4.887 3.91-9.775 8.797-10.775h0.954c4.911 0 8.797 3.91 9.798 8.82 0 1.955 18.572 149.457-117.248 231.983h-0.954c0 0.977-0.977 0.977-0.977 0.977-152.879 41.030-250.065-69.353-251.043-70.33-3.91-3.91-2.932-9.751 0.977-13.684 1.987-1.043 4.311-1.741 6.775-1.95l0.067-0.005c0.084-0.002 0.182-0.004 0.281-0.004 2.911 0 5.561 1.116 7.547 2.943l-0.008-0.007c2.932 3.91 77.172 87.436 198.284 71.308-72.262-33.699-100.119-105.984-101.097-109.894-1.955-4.887 0.977-10.752 5.888-12.707 1.055-0.603 2.319-0.958 3.666-0.958 0.086 0 0.171 0.001 0.256 0.004h-0.012c3.887 0 6.819 1.955 8.774 5.865 0.954 0.954 32.675 83.479 110.336 109.382zM446.068 129.071l-55.692-55.692h-179.712c-5.909-0.052-10.687-4.822-10.752-10.723v-33.728c29.789 2.956 62.534 3.91 99.142 3.91 55.692 0 103.54 6.865 147.014 15.663v80.57zM101.748 604.3c-8.797-8.797-8.797-22.947 0-31.744s22.947-8.797 31.721 0l34.676 34.676-31.744 31.744-34.653-34.676zM229.702 529.571h1.466c0-0.028 0-0.060 0-0.093 0-12.082 9.794-21.876 21.876-21.876 0.025 0 0.049 0 0.074 0h-0.004c0.126-0.003 0.274-0.004 0.423-0.004 11.915 0 21.574 9.659 21.574 21.574 0 0.141-0.001 0.281-0.004 0.421v-0.021 48.849h-45.405v-48.849z" />
<glyph unicode="&#xe907;" glyph-name="xuexi" horiz-adv-x="1027" d="M153.754 310.134l-153.754-374.134 366.446 163.491 31.263 31.263-211.155 210.643zM987.612 710.919c51.251 48.689 51.251 77.389 0 126.078l-85.077 85.077c-51.251 48.689-77.902 48.689-126.591 0l-98.402-97.89 211.668-210.643 98.402 97.89zM642.178 788.821l-420.773-410.010 211.668-211.155 420.773 410.010zM388.484 923.612c-22.603 22.467-53.756 36.354-88.152 36.354s-65.55-13.887-88.158-36.36l0.006 0.006-212.18-211.155 35.363-35.363 210.643-209.105 35.363 35.363-51.251 51.251 105.578 105.578-35.363 35.363-106.090-106.090-40.488 39.463 4.1-4.1 71.752 70.214-35.363 35.363-70.727-70.214-51.251 51.251 164.517 166.567c51.251 48.689 77.902 48.689 126.591 0l149.141-146.579 35.363 35.363-159.391 156.829zM988.124 326.022l-162.466 161.954-35.363-35.363 153.754-153.754c51.251-48.689 51.251-77.389 0-126.078l-166.054-165.542-51.251 51.251 86.615 86.615-35.363 35.363-86.615-86.615-35.363 35.363 106.090 105.578-35.363 35.363-106.090-105.578-56.889 56.889-35.363-35.363 251.131-250.106 35.363 35.363 176.304 175.792c22.561 22.464 36.522 53.55 36.522 87.896s-13.961 65.432-36.518 87.892l-0.004 0.004z" />
<glyph unicode="&#xe908;" glyph-name="yule" d="M408.3 509.1c-15.5 0-29.9-3.9-43.3-11.6-13.5-7.8-24.1-18.3-31.7-31.7-7.9-13.5-11.8-28-11.6-43.3 0-23.5 8.7-44 25.8-61.1 17.1-17.2 37.7-25.8 61.8-25.8s44.4 8.7 61.1 25.8c16.6 17.1 25.1 37.6 25.1 61.3 0 23.6-8.4 44-25.1 61.1-17.2 16.8-37.7 25.3-62.1 25.3zM591.4 277.9c-15.5 57.9-2.6 112 39.1 162 41.5 50 98.1 82.4 169.8 97.1-25.4 85.5-74.1 155.5-146.1 210.1s-154.1 81.9-246.2 81.9c-22 0-44-1.7-66.1-5.5-22-3.6-43-8.7-62.8-15.2-20-6.5-39.3-14.5-58-24.4-18.8-9.7-36.7-20.8-53.8-32.9s-32.9-25.9-47.6-41c-14.5-15-28.2-30.9-40.3-47.6-12.3-16.6-23.4-34.3-33.6-53.1s-18.6-38.1-25.1-58c-6.3-20-11.4-41-15.2-63-3.6-21.8-5.5-43.9-5.5-65.9 0-44 7-86.7 20.8-128.3s33.4-79 58.7-112.5c25.3-33.5 54.4-62.6 87.9-87.4 33.5-24.7 70.8-44 112.5-58 41.6-14 84.3-20.8 128.3-20.8 61.9 0 119.8 12.8 173.6 38.6s99.8 60.9 137.9 105.3c-69.2 20.5-112 59.9-128.3 118.6zM548.1 341.9c-14.3-24.4-33.8-43.9-58.7-58-24.9-14.3-51.9-21.3-81.2-21.3-44 0-81.6 15.5-113 46.9-31.2 31.2-46.9 68.9-46.9 113 0 29.4 7.2 56.3 21.3 80.7 14.3 24.4 33.8 43.9 58.7 58 24.9 14.2 51.5 21.3 80 21.3 44.9 0 82.9-15.7 114.2-46.9 31.2-31.2 46.9-68.9 46.9-113 0-29.3-7.1-56.3-21.3-80.7zM831.9 769.4l192.2-73.4c-11.4 22.7-23.7 43.7-36.7 62.8s-26.3 34.8-39.8 46.9c-13.5 12.3-27.1 23-41 32.4-13.8 9.2-27.1 16.4-40.3 21.3-13 4.9-25.4 9-37.2 12.3-11.8 3.2-22.7 5.1-32.4 5.5-9.7 0.5-18.4 0.7-25.8 0.7-7.3 0-13-0.3-17.1-1.2h-6.1l-63.7 3.8c35.8-46.3 66.7-90.3 92.8-131.9s45.9-77 59.9-106.3c13.8-29.4 25.1-55.6 33.6-78.9 8.5-23.2 13.5-43 15.2-59.2s2.2-28.7 1.9-37.2c-0.3-8.4-1.4-15.5-3.1-21.3-32.6 16.2-68.8 19.1-108.7 8.5-37.6-10.6-66.6-30.5-87.4-59.9s-27-59.2-18.9-89.3c8.2-30 28.3-52.4 60.6-66.6 32.1-14.2 67.1-16.1 104.5-5.5 18.8 5.8 35.8 14 51.4 25.1 15.4 10.9 27.8 23.4 37.2 37.2s15.7 29 18.9 45.2c43.2 65.9 21.2 182.9-66.1 350.7l-43.9 78.3z" />
<glyph unicode="&#xe909;" glyph-name="yundong" d="M561.557 745.341c0-54.739 44.375-99.113 99.113-99.113s99.113 44.375 99.113 99.113v0c0 54.739-44.375 99.113-99.113 99.113s-99.113-44.375-99.113-99.113v0zM875.508 668.191c-33.598 24.066-61.242 0-61.242 0-78.268-98.775-140.526-69.31-155.294-65.779-14.764 3.53-96.986 48.58-114.519 56.789-17.529 8.209-40.853 24.128-118.054 19.104-87.666-7.64-163.487-87.761-171.495-120.998-8.014-33.235 49.869-66.082 74.545-40.199 84.851 110.829 161.553 66.56 161.553 66.56s-51.238-93.884-107.318-198.6c-91.137-112.691-153.473-66.342-187.423-51.784s-64.196-25.013-64.196-49.843 54.979-63.813 145.125-63.813c90.144 0 161.311 75.014 170.157 85.424 26.158-1.909 138.126-78.509 152.328-91.441 14.203-12.929 69.947-137.527 74.63-145.302s28.126-25.323 56.006-11.791c27.882 13.532 24.207 49.133 24.207 49.133s-49.472 128.13-81.455 160.369c-31.981 32.239-130.091 94.592-130.091 94.592s69.665 127.733 86.837 157.349c170.69-43.83 250.949 91.858 250.949 91.858s28.345 34.304-5.252 58.371z" />
<glyph unicode="&#xe90a;" glyph-name="zhi-chang" d="M864.2 707.6h-112.6v70.4c0 62.2-50.4 112.6-112.6 112.6h-253.5c-62.2 0-112.6-50.4-112.6-112.6v-70.4h-112.6c-46.7 0-84.5-37.8-84.5-84.5v-98.6h872.9v98.6c0 46.7-37.8 84.5-84.5 84.5zM667.1 707.6h-309.7v42.2c0 31.1 25.2 56.3 56.3 56.3h197.1c31.1 0 56.3-25.2 56.3-56.3v-42.2zM765.7 355.6c0-23.3-18.9-42.2-42.2-42.2s-42.2 18.9-42.2 42.2v84.5h-338v-84.5c0-23.3-18.9-42.2-42.2-42.2s-42.2 18.9-42.2 42.2v84.5h-183v-323.8c0-46.7 37.8-84.5 84.5-84.5h704c46.7 0 84.5 37.8 84.5 84.5v323.8h-183v-84.5z" />
<glyph unicode="&#xe90b;" glyph-name="fa-xian" d="M919.389 622.922c-22.332 52.8-54.303 100.22-95.023 140.94-40.718 40.718-88.135 72.688-140.938 95.022-54.669 23.122-112.738 34.846-172.593 34.846s-117.926-11.724-172.594-34.846c-52.801-22.332-100.219-54.304-140.938-95.022-40.721-40.721-72.69-88.139-95.022-140.94-23.122-54.668-34.847-112.736-34.847-172.593s11.725-117.927 34.847-172.595c22.332-52.8 54.3-100.218 95.022-140.94 40.72-40.72 88.138-72.689 140.937-95.020 54.67-23.122 112.739-34.847 172.595-34.847s117.926 11.724 172.594 34.847c52.801 22.332 100.218 54.302 140.939 95.020 40.72 40.721 72.689 88.139 95.020 140.94 23.123 54.668 34.847 112.737 34.847 172.595s-11.724 117.926-34.847 172.593zM764.504 671.892l-161.868-303.584c-2.253-4.181-5.596-7.523-9.652-9.714l-0.125-0.062-303.585-161.872c-3.231-1.753-7.074-2.785-11.158-2.789h-0.001c-0.021 0-0.045 0-0.070 0-6.533 0-12.445 2.657-16.716 6.949l-0.001 0.001c-7.437 7.438-9.108 18.669-4.159 27.948l161.864 303.588c2.254 4.18 5.596 7.522 9.651 9.714l0.125 0.062 303.585 161.865c3.231 1.753 7.074 2.786 11.158 2.791h0.001c6.34 0 12.302-2.469 16.787-6.948 7.435-7.437 9.109-18.668 4.164-27.947zM510.836 407.518c-11.269 0-22.3 4.569-30.272 12.538-7.97 7.971-12.539 19.005-12.539 30.273s4.569 22.3 12.538 30.272c7.97 7.969 19.004 12.538 30.273 12.538 11.27 0 22.303-4.569 30.272-12.538s12.538-19.003 12.538-30.272-4.569-22.304-12.538-30.272c-7.969-7.97-19.003-12.539-30.272-12.539z" />
<glyph unicode="&#xe90c;" glyph-name="guanbi" d="M512 960c-282.667 0-512-229.333-512-512s229.333-512 512-512 512 229.333 512 512-229.333 512-512 512zM722.987 246.827c-10.667-10.667-29.653-10.667-40.533 0l-161.067 161.067-161.067-161.067c-10.667-10.667-29.653-10.667-40.533 0-10.667 10.667-10.667 29.653 0 40.533l161.067 161.067-160.427 160.427c-10.667 10.667-10.667 29.653 0 40.533 10.667 10.667 29.653 10.667 40.533 0l160.427-160.427 160.427 160.427c11.307 10.667 29.653 10.667 40.533 0 10.667-10.667 10.667-29.653 0-40.533l-160.427-160.427 161.067-161.067c10.667-10.88 10.667-29.867 0-40.533z" />
<glyph unicode="&#xe90d;" glyph-name="guan-bi-xiangao" d="M512-56c-278.4 0-504 225.6-504 504s225.6 504 504 504 504-225.6 504-504-225.6-504-504-504zM512 904c-251.2 0-456-204.8-456-456s204.8-456 456-456 456 204.8 456 456-204.8 456-456 456zM548.8 448l195.2 195.2c9.6 9.6 9.6 25.6 0 36.8l-1.6 1.6c-9.6 9.6-25.6 9.6-35.2 0l-195.2-196.8-195.2 195.2c-9.6 9.6-25.6 9.6-35.2 0l-1.6-1.6c-9.6-9.6-9.6-25.6 0-36.8l195.2-193.6-195.2-195.2c-9.6-9.6-9.6-25.6 0-36.8l1.6-1.6c9.6-9.6 25.6-9.6 35.2 0l195.2 196.8 195.2-195.2c9.6-9.6 25.6-9.6 35.2 0l1.6 1.6c9.6 9.6 9.6 25.6 0 36.8l-195.2 193.6z" />
<glyph unicode="&#xe90e;" glyph-name="fa-bu" d="M512-64c-282.762 0-512 229.238-512 512s229.238 512 512 512 512-229.238 512-512-229.238-512-512-512zM748.308 487.385h-196.923v196.923c0 21.752-17.633 39.385-39.385 39.385s-39.385-17.633-39.385-39.385v-196.923h-196.923c-21.752 0-39.385-17.633-39.385-39.385s17.633-39.385 39.385-39.385h196.923v-196.923c0-21.752 17.633-39.385 39.385-39.385s39.385 17.633 39.385 39.385v196.923h196.923c21.752 0 39.385 17.633 39.385 39.385s-17.633 39.385-39.385 39.385v0z" />
<glyph unicode="&#xe90f;" glyph-name="quan-zi-dibu" d="M1012.693 341.333c-3.051-14.464-6.699-28.693-10.965-42.667v0c-33.941-111.424-104.875-206.592-198.485-271.488v0c0 0 0 0 0 0-82.709-57.365-182.976-91.179-291.243-91.179-36.608 0-72.235 3.989-106.667 11.307v0c-7.744 1.621-15.232 3.883-22.848 5.867-120.32 31.424-223.467 105.067-292.16 204.715v0c0 0 0 0 0 0-8.363 12.117-16.064 24.725-23.36 37.568 0 0 0 0 0 0-42.432 74.581-66.965 160.619-66.965 252.544 0 36.608 3.989 72.235 11.307 106.667v0c3.051 14.464 6.699 28.693 10.965 42.667v0c33.685 110.592 103.872 205.099 196.437 269.973 0 0 0 0 0 0 83.115 58.24 184.107 92.693 293.291 92.693 174.101 0 327.68-87.083 420.181-219.883 0 0 0 0 0 0 57.728-82.88 91.819-183.445 91.819-292.117 0-36.608-3.989-72.235-11.307-106.667zM956.651 298.667h-362.091c-13.525-7.488-28.224-13.099-43.691-16.704l221.973-224.085c85.312 57.131 150.507 141.611 183.808 240.789zM512 576c-70.699 0-128-57.301-128-128s57.301-128 128-128c70.699 0 128 57.301 128 128s-57.301 128-128 128zM512-21.333c80.768 0 156.757 20.437 223.125 56.363l-240.811 243.221c-33.493 3.456-64.085 16.661-88.981 36.629v-323.563c34.325-8 69.909-12.651 106.667-12.651zM362.667 3.349v362.091c-9.429 17.024-15.893 35.861-19.029 55.808l-223.083-231.936c57.173-86.315 142.123-152.384 242.112-185.963zM42.667 448c0-79.744 20.032-154.752 55.104-220.501l247.701 257.536c5.76 25.92 17.365 49.621 33.408 69.632h-323.563c-8-34.325-12.651-69.909-12.651-106.667zM67.349 597.333h362.091c12.693 7.040 26.432 12.352 40.853 15.979l-221.312 223.424c-84.245-57.131-148.608-141.056-181.632-239.403zM512 917.333c-81.707 0-158.485-20.949-225.387-57.664l239.296-241.707c34.965-2.837 66.923-16.128 92.757-36.843v323.563c-34.325 8-69.909 12.651-106.667 12.651zM661.333 892.651v-362.091c7.616-13.739 13.291-28.651 16.896-44.395l223.424 223.445c-57.131 84.949-141.44 149.845-240.32 183.040zM924.459 672.085l-242.88-242.901c-3.627-33.045-16.704-63.232-36.459-87.851h323.563c8 34.325 12.651 69.909 12.651 106.667 0 81.152-20.608 157.483-56.875 224.085z" />
<glyph unicode="&#xe910;" glyph-name="wo-de-dibu" d="M230.4 680.96c0-153.6 125.44-279.040 281.6-279.040s281.6 125.44 281.6 279.040c-2.56 153.6-128 279.040-281.6 279.040s-281.6-125.44-281.6-279.040zM747.52 432.64c-61.44-56.32-143.36-92.16-235.52-92.16s-174.080 35.84-235.52 92.16c-163.84-84.48-276.48-256-276.48-453.12 0-25.6 20.48-43.52 43.52-43.52h934.4c25.6 0 43.52 20.48 43.52 43.52 2.56 197.12-110.080 368.64-273.92 453.12z" />
<glyph unicode="&#xe911;" glyph-name="xiao-xi-1" d="M513.6 888c-254.4 0-459.2-179.2-459.2-400 0-136 78.4-256 196.8-329.6v-123.2c0-16 11.2-27.2 25.6-27.2 4.8 0 9.6 1.6 12.8 3.2l124.8 83.2c32-6.4 64-8 97.6-8 254.4 0 459.2 179.2 459.2 400 1.6 222.4-204.8 401.6-457.6 401.6zM307.2 422.4c-30.4 0-54.4 25.6-54.4 54.4 0 30.4 25.6 54.4 54.4 54.4 30.4 0 54.4-25.6 54.4-54.4 1.6-28.8-24-54.4-54.4-54.4zM516.8 422.4c-30.4 0-54.4 25.6-54.4 54.4 0 30.4 25.6 54.4 54.4 54.4 30.4 0 54.4-25.6 54.4-54.4s-25.6-54.4-54.4-54.4zM718.4 422.4c-30.4 0-54.4 25.6-54.4 54.4 0 30.4 25.6 54.4 54.4 54.4 30.4 0 54.4-25.6 54.4-54.4s-24-54.4-54.4-54.4z" />
<glyph unicode="&#xe912;" glyph-name="wo-de" horiz-adv-x="1022" d="M512 384c-160.148 0-290.462 129.182-290.462 288s130.314 288 290.462 288c157.538 0 287.803-129.034 290.462-287.655 0-159.163-130.314-288.345-290.462-288.345zM512 920.615c-0.022 0-0.047 0-0.073 0-69.041 0-131.559-27.933-176.868-73.113l0.006 0.006c-45.708-44.558-74.078-106.713-74.142-175.496v-0.012c0-137.108 112.64-248.615 251.077-248.615s251.077 111.508 251.077 248.615c-2.265 136.96-114.905 248.615-251.077 248.615zM960.345-64h-899.495c-33.649 0.194-60.851 27.517-60.851 61.193 0 0.173 0.001 0.347 0.002 0.52v-0.026c0 0.141 0 0.308 0 0.474 0 196.129 111.058 366.319 273.717 451.114l2.812 1.334 12.258 6.302 10.142-9.354c55.794-51.689 130.742-83.398 213.095-83.398s157.301 31.709 213.299 83.585l-0.204-0.187 10.092 9.354 12.258-6.302c171.52-88.615 276.529-262.203 274.068-453.465v-0.443c-0.279-33.584-27.569-60.702-61.192-60.702-0.001 0-0.001 0-0.002 0v0zM61.538-24.615h898.462c6.070 0.013 11.582 2.391 15.666 6.262l-0.010-0.010c3.978 3.915 6.455 9.344 6.498 15.352v0.55c0.030 1.948 0.046 4.247 0.046 6.55 0 174.005-96.324 325.513-238.558 404.111l-2.375 1.203c-61.295-52.518-141.548-84.484-229.268-84.484s-167.972 31.966-229.746 84.884l0.479-0.4c-146.126-81.358-243.348-234.905-243.348-411.16 0-0.248 0-0.495 0.001-0.742v0.038c-0.002-0.117-0.004-0.256-0.004-0.394 0-11.967 9.66-21.678 21.608-21.759h0.008z" />
<glyph unicode="&#xe913;" glyph-name="faxian-wei" d="M512.675-64c-0.196 0-0.427 0-0.658 0-282.77 0-512 229.23-512 512s229.23 512 512 512c211.122 0 392.398-127.782 470.707-310.225l1.272-3.332c25.304-58.584 40.021-126.794 40.021-198.443 0-282.539-228.855-511.625-511.306-512h-0.036zM512 914.989c-0.099 0-0.217 0-0.335 0-258.128 0-467.383-209.254-467.383-467.383s209.254-467.383 467.383-467.383c258.128 0 467.383 209.254 467.383 467.383 0 65.391-13.429 127.645-37.679 184.155l1.161-3.042c-72.749 169.381-237.987 285.921-430.485 286.27h-0.045zM258.813 143.726c-26.846 0.043-48.593 21.816-48.593 48.668 0 8.338 2.097 16.186 5.792 23.046l-0.127-0.259 177.625 333.588c4.583 8.59 11.44 15.447 19.774 19.905l0.256 0.125 333.588 177.4c6.614 3.59 14.481 5.701 22.841 5.701 26.848 0 48.612-21.764 48.612-48.612 0-8.346-2.103-16.2-5.808-23.063l0.127 0.258-177.906-333.588c-4.631-8.555-11.475-15.399-19.773-19.902l-0.257-0.127-333.644-177.456c-6.523-3.507-14.261-5.601-22.48-5.682h-0.025zM769.969 706.813c-0.621-0.002-1.203-0.169-1.704-0.459l0.017 0.009-333.588-177.287c-0.621-0.343-1.12-0.841-1.453-1.444l-0.010-0.019-177.85-333.588c-0.252-0.428-0.4-0.943-0.4-1.492 0-0.069 0.002-0.137 0.007-0.205v0.009c-0.003-0.053-0.004-0.114-0.004-0.177 0-1.989 1.612-3.601 3.601-3.601 0.758 0 1.462 0.234 2.042 0.635l-0.012-0.008 333.475 177.85c0.621 0.343 1.12 0.841 1.453 1.444l0.010 0.019 177.906 333.588c0.265 0.489 0.42 1.070 0.42 1.688s-0.156 1.199-0.43 1.707l0.009-0.019c-0.676 0.857-1.714 1.402-2.879 1.402-0.215 0-0.426-0.019-0.632-0.054l0.022 0.003zM514.251 400.795c-25.797 0.196-46.634 21.154-46.634 46.979 0 25.946 21.034 46.98 46.98 46.98s46.98-21.034 46.98-46.98c0-13.129-5.386-25-14.068-33.525l-0.007-0.007c-8.478-8.316-20.103-13.448-32.928-13.448-0.114 0-0.228 0-0.341 0.001h0.017z" />
<glyph unicode="&#xe914;" glyph-name="tianjiahaoyou" d="M735.903 440.5c-119.771 0-215.586-95.816-215.586-215.586s95.815-215.586 215.586-215.586c119.77 0 215.586 95.816 215.586 215.586s-95.816 215.586-215.586 215.586zM855.673 194.117h-88.971v-88.972h-61.596v88.972h-88.972v61.595h88.972v88.971h61.596v-88.971h88.971v-61.595zM523.739 389.171c-6.844 13.687-6.844 30.798 3.422 58.174 54.753 54.752 88.971 143.724 88.971 232.695 0 136.881-82.129 205.32-188.209 205.32-102.66 0-184.788-71.863-184.788-205.32 0-88.97 34.218-177.943 88.971-232.695 20.532-54.753-17.11-75.285-23.955-78.706-109.504-41.064-236.119-112.927-236.119-184.789v-27.377c0-95.815 184.788-116.348 355.888-116.348 37.642 0 75.283 0 112.925 3.422-44.486 47.909-71.862 112.926-71.862 184.788 0.001 58.174 20.533 116.348 54.753 160.835z" />
<glyph unicode="&#xe918;" glyph-name="fanhui" d="M736 0c-9 0-18.1 3.2-25 9.6l-448 415.2c-13.8 12.8-13.8 33.6 0 46.4l448 415.2c13.8 12.8 36.2 12.8 50 0s13.8-33.6 0-46.4l-423-392 423-392c13.8-12.8 13.8-33.6 0-46.4-6.9-6.4-16-9.6-25-9.6z" />
<glyph unicode="&#xe919;" glyph-name="fenxiang" d="M874.183 710.599c-273.92-29.44-521.5-265.614-569.543-529.977-2.922-15.949-13.944-28.774-28.561-34.203l-0.311-0.101c-4.462-1.657-9.618-2.616-14.997-2.616-11.067 0-21.186 4.059-28.95 10.771l0.056-0.048c-9.637 8.341-15.698 20.591-15.698 34.256 0 2.873 0.268 5.683 0.78 8.407l-0.044-0.281c52.907 291.3 312.661 548.892 611.47 598.329l-136.761 81.038c-13.286 8.039-22.031 22.411-22.031 38.825 0 8.396 2.288 16.257 6.274 22.995l-0.115-0.21c7.813 13.366 22.093 22.203 38.438 22.203 8.339 0 16.14-2.3 22.805-6.301l-0.201 0.112 259.3-153.685c13.27-8.056 21.999-22.428 21.999-38.839 0-10.911-3.859-20.92-10.286-28.738l0.063 0.079-198.258-242.091c-8.2-10.011-20.562-16.349-34.404-16.349-19.107 0-35.393 12.076-41.643 29.012l-0.099 0.308c-1.777 4.665-2.805 10.061-2.805 15.696 0 10.917 3.861 20.933 10.292 28.756l-0.063-0.079 133.291 162.731zM891.648 308.452c0 24.86 19.968 44.999 44.572 44.999 24.633 0 44.601-20.139 44.601-44.999v-185.344c0-100.722-71.509-184.946-163.47-184.946h-653.881c-91.961 0-163.47 84.196-163.47 185.003v559.844c0 100.779 71.509 184.946 163.47 184.946h255.659c24.633 0 44.572-20.139 44.572-44.999 0-24.832-19.94-44.971-44.572-44.971h-255.659c-39.367 0-74.297-41.102-74.297-94.976v-559.844c0-53.874 34.93-95.004 74.297-95.004h653.881c39.339 0 74.297 41.131 74.297 95.004v185.287z" />
<glyph unicode="&#xe91a;" glyph-name="shibai" d="M512 960c-282.624 0-512-229.376-512-512s229.376-512 512-512 512 229.376 512 512-229.376 512-512 512zM722.944 246.784c-10.752-10.752-29.696-10.752-40.448 0l-161.28 161.28-160.768-161.28c-10.752-10.752-29.696-10.752-40.448 0s-10.752 29.696 0 40.448l161.28 160.768-160.768 160.768c-10.752 10.752-10.752 29.696 0 40.448s29.696 10.752 40.448 0l160.768-160.256 160.256 160.256c11.264 10.752 29.696 10.752 40.448 0s10.752-29.696 0-40.448l-160.256-160.768 161.28-161.28c10.24-10.24 10.24-29.184-0.512-39.936z" />
<glyph unicode="&#xe91b;" glyph-name="wodong-dongtai" d="M0 608c0 18.8 6.7 34.8 20.1 47.8s29.5 19.6 48.4 19.6h68.5v-305.5h-68.5c-18.8 0-35 6.5-48.4 19.6-13.4 13-20.1 28.9-20.1 47.8v170.7zM761 888.4c31.2 29.7 59.4 46 84.8 48.9s47.8-3.8 67.4-20.1c19.6-16.3 36.2-40.2 50-71.7s25-66.7 33.7-105.4c8.7-38.8 15.2-79.4 19.6-121.8 4.3-42.4 6.5-82.8 6.5-121.2s-2.7-76.8-8.2-115.2c-5.4-38.4-13.4-74.5-23.9-108.2s-22.8-63.2-37-88.6c-14.1-25.4-29.9-44.2-47.3-56.5s-36.1-16.7-56-13c-19.9 3.6-40.8 17.8-62.5 42.4-21 24.6-49.5 45.1-85.3 61.4-35.9 16.3-75 30.1-117.4 41.3s-85.3 20.3-128.8 27.2c-43.5 6.9-83.3 13-119.6 18.5s-66.5 10.7-90.8 15.8c-24.3 5.1-37.9 11.2-40.8 18.5v340.3c2.9 10.1 14.3 18.5 34.2 25s45.3 12.7 76.1 18.5c30.8 5.8 65.6 12.1 104.4 19s78.3 16.3 118.5 28.3 79.5 27.2 118 45.7c38.4 18.2 73.2 41.9 104.4 70.9zM369.6 222c3.6-8.7 8-18.1 13-28.3 4.3-9.4 10.1-20.3 17.4-32.6 7.2-12.3 15.9-25.7 26.1-40.2 12.3-17.4 24.8-35.7 37.5-54.9s22.3-36.6 28.8-52.2c6.5-15.6 8.5-28.4 6-38.6-2.5-10.1-12.9-15.2-31-15.2h-62c-14.5 0-27.9 2.7-40.2 8.2-12.3 5.4-24.1 13.8-35.3 25s-22.8 25.5-34.8 42.9c-12 17.4-24.8 38-38.6 62-16.7 27.5-28.3 51.6-34.8 72.3s-10.9 37.9-13 51.6c-2.9 15.9-2.9 29.7 0 41.3 5.8-0.7 12.7-2.2 20.7-4.3 6.5-1.4 14.5-3.3 23.9-5.4 9.4-2.2 20.3-4.3 32.6-6.5 12.3-2.9 23.4-5.6 33.2-8.2 9.8-2.5 18.7-5.3 26.6-8.2 8.7-2.9 16.7-5.8 23.9-8.7z" />
<glyph unicode="&#xe91c;" glyph-name="quanzi" d="M230.062 400.109l-153.573-154.597c-8.131-8.217-13.154-19.522-13.154-32.001 0-7.364 1.749-14.32 4.855-20.474l-0.119 0.261c22.92-39.8 49.556-74.080 80.245-104.249l0.068-0.066c14.618-14.561 29.179-26.676 43.797-38.791 13.76-11.105 29.16-22.107 45.19-32.201l2.019-1.187c6.754-4.188 14.946-6.671 23.719-6.671 25.131 0 45.503 20.372 45.503 45.503 0 0.046 0 0.091 0 0.137v-0.007c-0.341 83.157-0.796 217.107-0.739 312.208 0 0.028 0 0.060 0 0.093 0 25.131-20.372 45.503-45.503 45.503-12.631 0-24.060-5.146-32.304-13.457l-0.003-0.003zM284.439 612.949h-226.321c-0.119 0.001-0.261 0.002-0.402 0.002-19.383 0-35.706-13.102-40.596-30.933l-0.069-0.295c-10.861-37.297-17.108-80.142-17.108-124.445 0-2.242 0.016-4.48 0.048-6.714l-0.004 0.338c0-18.656 2.275-37.369 2.446-56.026v-4.38c2.564-22.724 6.362-42.972 11.486-62.685l-0.679 3.076c4.9-18.826 21.747-32.498 41.787-32.498 11.887 0 22.651 4.811 30.45 12.592l-0.001-0.001c59.438 59.609 160.114 160.512 229.222 229.222 7.535 7.713 12.184 18.273 12.184 29.92 0 23.518-18.956 42.609-42.422 42.828h-0.021zM305.256 881.076c-8.219 8.142-19.532 13.173-32.020 13.173-7.379 0-14.348-1.757-20.511-4.874l0.26 0.119c-39.915-22.832-74.289-49.399-104.552-80.037l-0.048-0.049c-14.618-14.504-26.79-29.065-38.962-43.626-11.194-13.904-22.273-29.473-32.424-45.682l-1.191-2.040c-4.16-6.705-6.625-14.838-6.625-23.548 0-24.942 20.22-45.162 45.162-45.162 0.050 0 0.099 0 0.149 0h313.906c0.002 0 0.004 0 0.007 0 24.942 0 45.162 20.22 45.162 45.162 0 12.43-5.022 23.688-13.148 31.854l0.002-0.002zM510.987 959.91c-2.758 0.057-6.009 0.090-9.267 0.090-17.291 0-34.366-0.921-51.18-2.717l2.090 0.181c-23.359-2.525-44.258-6.368-64.599-11.6l3.113 0.679c-18.961-4.78-32.773-21.682-32.773-41.811 0-3.674 0.46-7.24 1.326-10.645l-0.064 0.298c2.018-7.941 5.989-14.773 11.378-20.194l-0.002 0.002c59.78-59.211 160.512-159.261 229.392-227.914 7.836-7.96 18.728-12.891 30.771-12.891 23.843 0 43.171 19.328 43.171 43.171 0 0.013 0 0.026 0 0.039v-0.002 224.387c-0.339 18.013-11.53 33.329-27.293 39.71l-0.293 0.105c-2.426 1.115-5.306 2.128-8.288 2.881l-0.357 0.076c-37.916 9.511-81.641 15.355-126.597 16.146l-0.527 0.007zM708.47 846.152c0.398-82.929 0.853-217.391 0.739-312.379 0.36-24.854 20.593-44.864 45.499-44.864 12.408 0 23.655 4.966 31.864 13.019l-0.007-0.007 156.474 155.962c8.18 8.165 13.24 19.453 13.24 31.923 0 7.355-1.761 14.3-4.883 20.434l0.118-0.256c-22.516 39.143-48.602 72.873-78.629 102.632l-0.035 0.034c-1.081 1.081-2.275 2.105-3.413 3.128l-42.090 34.81c-14.774 11.812-31.305 23.25-48.606 33.53l-2.016 1.109c-6.574 3.905-14.493 6.212-22.951 6.212-16.504 0-30.955-8.786-38.932-21.936l-0.114-0.202c-3.932-6.526-6.258-14.405-6.258-22.827 0-0.113 0-0.227 0.001-0.34v0.017zM963.686 286.977c19.839 0.066 36.682 12.819 42.847 30.566l0.097 0.319c10.947 38.17 17.243 82.010 17.243 127.32 0 0.991-0.003 1.982-0.009 2.971l0.001-0.153c0 20.59-1.706 39.474-3.47 58.358-2.572 22.224-6.109 41.767-10.761 60.873l0.693-3.369c-5.135 19.921-22.94 34.402-44.128 34.402-12.466 0-23.762-5.013-31.98-13.133l0.004 0.004-221.827-221.316c-8.202-8.16-13.278-19.456-13.278-31.937s5.076-23.777 13.276-31.936l0.002-0.002c8.19-8.125 19.458-13.158 31.902-13.196h219.446zM554.727 172.366l160.057-159.261c7.661-7.728 18.28-12.513 30.017-12.513 7.798 0 15.102 2.112 21.373 5.795l-0.199-0.108c40.135 22.757 74.647 49.515 104.846 80.499l0.096 0.098c13.253 13.196 24.856 27.984 37.995 41.294 1.002 1.012 1.968 2.068 2.892 3.162l0.066 0.080c11.709 14.536 23.119 30.783 33.447 47.759l1.136 2.010c3.847 6.298 6.124 13.918 6.124 22.070 0 23.654-19.176 42.83-42.83 42.83-0.093 0-0.187 0-0.28-0.001h0.014c-84.294 0-227.117-0.569-324.721-0.512-23.486-0.22-42.44-19.311-42.44-42.828 0-11.731 4.716-22.36 12.356-30.095l-0.004 0.004zM512.807-63.909c2.766-0.058 6.027-0.091 9.296-0.091 17.3 0 34.386 0.921 51.209 2.717l-2.091-0.181c23.442 2.538 44.4 6.38 64.804 11.604l-3.148-0.683c18.961 4.78 32.773 21.682 32.773 41.811 0 3.674-0.46 7.24-1.326 10.645l0.064-0.298c-2.018 7.941-5.989 14.773-11.378 20.194l0.002-0.002c-59.78 59.211-160.512 159.261-229.392 227.914-7.836 7.96-18.728 12.891-30.771 12.891-23.843 0-43.171-19.328-43.171-43.171 0-0.013 0-0.026 0-0.039v0.002-224.387c0.259-17.914 11.262-33.195 26.843-39.708l0.288-0.107c2.426-1.115 5.306-2.128 8.288-2.881l0.357-0.076c37.886-9.459 81.561-15.244 126.465-15.977l0.488-0.006z" />
<glyph unicode="&#xe91d;" glyph-name="shanchu" d="M731.918 779.466h-438.633c-40.383 0-73.106-32.72-73.106-73.103v-24.368h584.844v24.368c0.001 40.383-32.72 73.103-73.105 73.103zM604.222 828.201l10.756-76.91h-204.753l10.756 76.91h183.24zM610.076 876.936h-194.948c-20.108 0-38.813-16.277-41.621-36.218l-14.255-101.968c-2.784-19.917 11.4-36.194 31.508-36.194h243.685c20.108 0 34.293 16.276 31.484 36.217l-14.255 101.969c-2.786 19.917-21.49 36.194-41.598 36.194zM744.102 633.261h-463.002c-26.795 0-46.761-21.845-44.334-48.544l39.933-438.996c2.403-26.7 26.344-48.544 53.14-48.544h365.527c26.795 0 50.736 21.845 53.14 48.544l39.932 438.996c2.426 26.699-17.54 48.544-44.336 48.544zM415.128 194.647h-73.106l-24.369 341.143h97.474v-341.144zM561.339 194.647h-97.474v341.143h97.474v-341.144zM683.181 194.647h-73.106v341.143h97.474l-24.368-341.144z" />
<glyph unicode="&#xe91e;" glyph-name="wode-shezhi" d="M881 448c0 52.4 32.9 96.8 79 114.5-11 43.2-28 83.9-50.2 121.3-45.2-20.1-99.8-11.9-136.8 25.2-37 37-45.2 91.7-25.1 136.8-37.5 22.2-78.2 39.2-121.4 50.2-17.8-46.1-62.2-79-114.5-79-52.4 0-96.8 32.9-114.5 79-43.2-11-83.9-28-121.3-50.2 20.1-45.2 11.9-99.8-25.1-136.8s-91.7-45.2-136.8-25.2c-22.3-37.4-39.3-78.1-50.3-121.3 46.1-17.8 79-62.2 79-114.5 0-52.4-32.9-96.8-79-114.5 11-43.2 28-83.9 50.2-121.3 45.2 20.1 99.8 11.9 136.8-25.2 37-37 45.2-91.7 25.1-136.8 37.5-22.2 78.2-39.2 121.4-50.2 17.8 46.1 62.2 79 114.5 79 52.4 0 96.8-32.9 114.5-79 43.2 11 83.9 28 121.3 50.2-20.1 45.2-11.9 99.8 25.1 136.8s91.7 45.2 136.8 25.2c22.3 37.4 39.3 78.1 50.3 121.3-46.1 17.7-79 62.1-79 114.5zM512 325c-67.9 0-123 55.1-123 123s55.1 123 123 123 123-55.1 123-123-55.1-123-123-123z" />
<glyph unicode="&#xe91f;" glyph-name="quanzi-" d="M997.078 285.097h-395.011c-13.724-7.742-29.613-14.023-46.39-18.013l-1.255-0.252 242.134-244.424c92.859 62.889 163.016 153.142 199.443 259.082l1.078 3.606zM512.028-64c0.234 0 0.51-0.001 0.787-0.001 88.91 0 172.504 22.76 245.273 62.773l-2.641-1.331-262.521 265.314c-37.202 3.951-70.442 18.367-97.425 40.21l0.348-0.273v-352.951c34.861-8.624 74.909-13.627 116.106-13.74h0.074zM349.097-37.078v395.011c-9.876 17.587-17.148 38.073-20.638 59.822l-0.14 1.060-243.363-253.026c62.93-93.995 153.76-165.016 260.534-201.787l3.607-1.080zM0 447.972c0-0.137 0-0.299 0-0.461 0-87.886 22.254-170.574 61.434-242.737l-1.333 2.683 270.229 280.953c6.635 29.197 19.33 54.745 36.75 76.317l-0.276-0.353h-353.007c-8.63-34.918-13.651-75.038-13.796-116.308v-0.095zM26.922 610.903h395.011c12.85 7.196 27.727 13.169 43.399 17.15l1.285 0.277-241.519 243.754c-91.691-62.855-160.976-152.503-197.097-257.573l-1.078-3.608zM512.028 960c-0.173 0-0.378 0-0.583 0-89.938 0-174.431-23.31-247.768-64.219l2.587 1.325 260.901-263.694c38.724-3.176 73.519-17.822 101.56-40.49l-0.35 0.274v353.007c-34.902 8.633-75.004 13.655-116.255 13.796h-0.092zM674.903 933.078v-395.011c7.871-13.954 14.215-30.112 18.188-47.182l0.244-1.245 243.754 243.754c-62.876 92.457-152.929 162.307-258.581 198.607l-3.605 1.077zM962 692.452l-264.979-264.979c-4.135-36.742-18.458-69.528-40.042-96.196l0.273 0.348h352.951c8.759 35.315 13.785 75.857 13.785 117.572 0 89.183-22.968 173.001-63.313 245.863l1.325-2.608z" />
<glyph unicode="&#xe920;" glyph-name="wode-dongtai" d="M953.929 618.642l-53.394 7.973-228.206-216.795c-3.393-3.291-8.026-5.32-13.134-5.32-5.742 0-10.885 2.565-14.346 6.611l-0.022 0.026c-3.167 3.656-5.097 8.458-5.097 13.712 0 5.892 2.427 11.217 6.336 15.029l0.004 0.004 204.288 194.048-22.455 3.438c-16.452 2.842-31.090 7.16-44.966 12.941l1.373-0.507-256.731-243.785c-7.475-7.165-17.638-11.576-28.831-11.576-12.679 0-24.037 5.66-31.683 14.592l-0.047 0.057c-6.939 8.049-11.166 18.608-11.166 30.154 0 13.047 5.397 24.834 14.079 33.249l0.012 0.012 235.447 223.598c-32.695 26.331-60.709 58.295-76.361 91.429l-56.759 119.077c-33.938 71.314-89.161 71.168-122.661-0.366l-55.954-119.589c-33.499-71.607-122.734-139.703-198.144-151.406l-125.806-19.529c-75.41-11.703-92.306-66.706-37.522-122.149l91.429-92.379c54.711-55.442 89.161-165.083 76.507-243.712l-21.065-131.145c-12.727-78.555 32.11-112.421 99.474-75.045l112.494 62.245c67.291 37.303 177.737 37.669 245.321 0.805l112.859-61.586c67.584-36.864 112.201-2.779 99.035 75.703l-21.943 131.072c-13.093 78.482 20.699 188.343 75.118 244.224l90.917 93.111c54.272 55.808 37.083 110.665-38.4 121.856z" />
<glyph unicode="&#xe921;" glyph-name="14" horiz-adv-x="2534" d="M1126.059 71.851c0-75.093-59.392-135.851-134.485-135.851-74.411 0-134.485 60.757-135.168 135.851h269.653zM1081.685 871.253c0 48.469-40.277 88.747-90.112 88.747s-90.112-39.595-90.112-88.747c0-4.779 0.683-9.557 1.365-14.336-124.245-43.008-215.040-151.552-215.040-306.517v-170.667s-11.605-148.821-55.296-150.187c-25.941 0-46.421-19.797-46.421-44.373s20.48-44.373 45.056-44.373h720.896c25.259 0 45.056 19.797 45.056 44.373s-20.48 44.373-45.056 44.373c-45.056 0-55.979 150.187-55.979 150.187v170.667c0 154.965-83.968 264.192-215.040 306.517 0 4.779 0.683 9.557 0.683 14.336z" />
<glyph unicode="&#xe922;" glyph-name="shezhi" d="M661.637 42.26c-16.276 0.006-32.107 6.728-42.317 18.008-13.921 15.262-58.030 54.952-94.141 54.952-35.855 0-80.645-39.92-93.512-53.898-10.194-11.090-25.902-17.7-42.020-17.7-7.68 0-14.924 1.47-21.54 4.373l-1.157 0.507-109.747 61.368-1.090 0.763c-19.973 13.983-27.577 41.344-17.68 63.636 0.077 0.164 10.128 23.353 10.128 44.488 0 64.138-52.189 116.337-116.337 116.337h-3.886l-0.707-0.016c-18.375 0-33.336 16.323-38.123 41.59-0.379 2.023-9.36 49.936-9.36 87.685 0 37.755 8.976 85.673 9.36 87.696 4.838 25.584 20.127 42.014 38.825 41.574h3.891c64.143 0 116.337 52.188 116.337 116.332 0 21.13-10.040 44.313-10.148 44.544-9.892 22.266-2.238 49.617 17.833 63.56l1.136 0.788 115.815 63.626 1.208 0.512c6.523 2.78 13.665 4.188 21.233 4.188 16.087 0 31.82-6.472 42.112-17.316 13.711-14.351 57.037-51.681 92.114-51.681 34.739 0 77.803 36.593 91.468 50.693 10.23 10.619 25.862 16.983 41.78 16.983 7.72 0 14.996-1.464 21.632-4.342l1.172-0.512 111.862-62.146 1.111-0.773c20.014-13.968 27.633-41.324 17.73-63.627-0.071-0.168-10.127-23.357-10.127-44.492 0-64.144 52.188-116.332 116.337-116.332h3.891c18.678 0.415 33.981-15.99 38.825-41.574 0.384-2.028 9.36-49.936 9.36-87.69s-8.976-85.673-9.365-87.69c-4.839-25.585-20.147-41.954-38.825-41.57h-3.886c-64.144 0-116.337-52.193-116.337-116.342 0-21.13 10.046-44.303 10.143-44.534 9.881-22.256 2.242-49.612-17.792-63.564l-1.116-0.789-113.756-62.868-1.183-0.512c-6.518-2.816-13.63-4.235-21.15-4.235zM658.181 95.852c0.512-0.328 1.95-0.896 3.456-0.896l0.174 0.005 106.276 58.741c-2.565 5.955-14.295 34.883-14.295 65.050 0 90.23 71.066 164.178 160.169 168.801 1.28 7.081 8.238 46.92 8.238 76.8s-6.958 69.699-8.238 76.8c-89.098 4.629-160.169 78.572-160.169 168.802 0 30.213 11.77 59.177 14.31 65.090l-104.555 58.087c-0.118 0.005-0.271 0.015-0.44 0.015-1.782 0-3.446-0.65-3.994-1.024-1.761-1.807-16.911-17.173-38.682-32.487-32.23-22.666-62.7-34.165-90.578-34.165-28.14 0-58.86 11.725-91.29 34.841-21.903 15.611-37.13 31.273-38.89 33.111-0.559 0.38-2.243 1.045-4.040 1.045-0.133 0-0.264-0.004-0.393-0.011l0.019 0.001-108.298-59.48c2.595-6.030 14.284-34.908 14.284-65.023 0-90.225-71.065-164.173-160.169-168.802-1.28-7.086-8.238-46.914-8.238-76.8 0-29.88 6.958-69.698 8.249-76.795 89.093-4.628 160.158-78.581 160.158-168.806 0-30.275-11.811-59.284-14.325-65.126l102.502-57.314c0.062-0.010 0.143-0.010 0.23-0.010 1.496 0 2.914 0.548 3.42 0.876 1.92 2.058 17.224 18.263 39.276 34.432 32.865 24.090 64.103 36.3 92.83 36.3 29.010 0 60.483-12.446 93.543-36.997 22.18-16.46 37.55-32.973 39.46-35.061zM525.558 310.016c-85.427 0-154.926 69.504-154.926 154.926 0 85.427 69.499 154.926 154.926 154.926s154.931-69.499 154.931-154.926c0-85.422-69.51-154.926-154.931-154.926zM525.558 567.173c-56.371 0-102.226-45.86-102.226-102.226 0-56.376 45.86-102.236 102.226-102.236s102.23 45.86 102.23 102.236c0 56.366-45.859 102.226-102.23 102.226z" />
<glyph unicode="&#xe923;" glyph-name="tianjia" d="M510.125-7.585c-250.935 0-454.359 203.465-454.359 454.433s203.424 454.417 454.359 454.417c250.938 0 454.361-203.45 454.361-454.417s-203.424-454.433-454.361-454.433zM510.125 844.465c-219.571 0-397.563-178.018-397.563-397.617s177.993-397.62 397.563-397.62 397.563 178.021 397.563 397.62-177.993 397.617-397.563 397.617zM680.51 418.441h-141.985v-142.007c0-15.677-12.715-28.396-28.398-28.396s-28.396 12.719-28.396 28.396v142.007h-141.989c-15.683 0-28.398 12.717-28.398 28.406 0 15.679 12.717 28.396 28.398 28.396h141.989v142.013c0 15.677 12.715 28.389 28.396 28.389 15.685 0 28.398-12.71 28.398-28.389v-142.013h141.985c15.685 0 28.398-12.717 28.398-28.396 0-15.69-12.712-28.406-28.398-28.406z" />
<glyph unicode="&#xe924;" glyph-name="tupiananniu" d="M512.497 933.178c-266.508 0-482.695-216.352-482.695-482.198s216.186-482.198 482.198-482.198 482.198 216.352 482.198 482.198c0.497 266.012-215.69 482.198-481.702 482.198zM512.497 8.84c-243.665 0-442.139 198.64-442.139 442.139s197.978 442.305 442.139 442.305 442.139-198.64 442.139-442.139-198.474-442.305-442.139-442.305zM382.222 490.873c50.653 0 91.871 41.218 91.871 91.871s-41.218 91.871-91.871 91.871-91.871-41.218-91.871-91.871 41.218-91.871 91.871-91.871zM769.404 236.614l-133.089 319.645c-1.821 3.476-5.297 6.456-9.435 6.456-4.138 0.662-8.277-1.821-9.932-5.297l-154.277-252.438-45.853 75.98c-1.821 2.98-5.297 5.297-8.773 5.297s-7.118-1.821-9.435-4.635l-97.168-142.359c-2.317-3.476-2.317-7.615-0.662-11.256 1.821-3.476 5.959-5.959 9.435-5.959h449.092c3.476 0 7.118 1.821 8.773 4.635 2.483 2.814 2.483 6.29 1.324 9.932z" />
<glyph unicode="&#xe925;" glyph-name="tuichuqun" d="M511.992-63.983c-282.321 0-511.991 229.679-511.991 511.991 0 282.278 229.671 511.991 511.991 511.991 0.134 0 0.293 0 0.452 0 132.611 0 253.419-50.533 344.22-133.392l-0.4 0.36c8.602-7.83 13.98-19.073 13.98-31.572 0-11.056-4.208-21.13-11.11-28.706l0.031 0.034c-15.829-17.493-42.794-18.73-60.287-2.901-75.354 68.742-176.042 110.846-286.564 110.846-0.113 0-0.227 0-0.34 0h0.018c-235.26 0-426.659-191.399-426.659-426.659 0-235.303 191.399-426.659 426.659-426.659 105.982 0 207.57 39.082 286.033 110.078 7.534 6.856 17.593 11.055 28.632 11.055 12.523 0 23.785-5.403 31.58-14.005l0.032-0.036c6.848-7.537 11.041-17.594 11.041-28.63 0-12.521-5.397-23.782-13.992-31.583l-0.035-0.032c-94.164-85.247-216.103-132.179-343.29-132.179zM885.976 407.553h-544.648c-23.466 0-42.666 19.2-42.666 42.666s19.2 42.666 42.666 42.666h544.648l-92.986 95.666c-7.692 7.733-12.446 18.394-12.446 30.165s4.755 22.432 12.448 30.167l-0.002-0.002c7.733 7.692 18.394 12.446 30.165 12.446s22.432-4.755 30.167-12.448l-0.002 0.002 158.205-162.771c7.694-7.705 12.452-18.343 12.452-30.093 0-1.004-0.035-2-0.103-2.987l0.007 0.133c0.064-0.879 0.101-1.905 0.101-2.94s-0.037-2.060-0.109-3.076l0.008 0.137c0.061-0.856 0.096-1.855 0.096-2.862 0-11.75-4.758-22.388-12.453-30.094v0l-158.205-162.771c-7.733-7.692-18.394-12.446-30.165-12.446s-22.432 4.755-30.167 12.448l0.002-0.002c-7.692 7.733-12.446 18.394-12.446 30.165s4.755 22.432 12.448 30.167l-0.002-0.002 92.986 95.674z" />
<glyph unicode="&#xe926;" glyph-name="weixing" horiz-adv-x="1059" d="M516.465 960c-282.75 0-512-229.25-512-512s229.25-512 512-512 512 229.25 512 512-229.25 512-512 512zM442.465 436.625c-0.25-0.75-0.5-1.125-0.75-1.875s-0.5-1.125-0.75-1.875-0.5-1.125-0.75-1.875-0.5-1.125-0.75-1.875-0.5-1.125-0.75-1.875-0.5-1.125-0.75-1.875-0.5-1.125-0.75-1.875-0.5-1.125-0.75-1.875-0.5-1.125-0.5-1.875c-0.25-0.75-0.5-1.125-0.5-1.875-0.25-0.75-0.5-1.125-0.5-1.875-0.25-0.75-0.25-1.125-0.5-1.875s-0.5-1.125-0.5-1.875c-0.25-0.75-0.25-1.125-0.5-1.875s-0.25-1.125-0.5-1.875-0.25-1.125-0.5-1.875-0.25-1.125-0.5-1.875-0.25-1.125-0.5-1.875-0.25-1.125-0.5-1.875-0.25-1.125-0.5-1.875-0.25-1.125-0.5-1.875c0-0.75-0.25-1.125-0.25-1.875s-0.25-1.125-0.25-1.875-0.25-1.125-0.25-1.875-0.25-1.125-0.25-1.875-0.25-1.125-0.25-1.875-0.25-1.125-0.25-1.875-0.25-1.125-0.25-1.875-0.25-1.125-0.25-1.875-0.25-1.125-0.25-1.875 0-1.125-0.25-1.875c0-0.75-0.25-1.125-0.25-1.875s0-1.125-0.25-1.875c0-0.75 0-1.125-0.25-1.875 0-0.75 0-1.125-0.25-1.875v-22.5c0-0.75 0-1.125 0.25-1.875 0-0.75 0-1.125 0.25-1.875 0-0.75 0-1.125 0.25-1.875 0-0.75 0-1.125 0.25-1.875 0-0.75 0.25-1.125 0.25-1.875s0.25-1.125 0.25-1.875 0.25-1.125 0.25-1.875 0.25-1.125 0.25-1.875 0.25-1.125 0.25-1.875 0.25-1.125 0.25-1.875 0.25-1.125 0.25-1.875 0.25-1.125 0.25-1.875 0.25-1.125 0.25-1.875 0.25-1.125 0.5-1.875 0.25-1.125 0.5-1.875 0.25-1.125 0.5-1.875 0.25-1.125 0.5-1.875 0.25-1.125 0.5-1.875 0.25-1.125 0.5-1.875 0.25-1.125 0.5-1.875 0.25-1.125 0.5-1.875 0.25-1.125 0.5-1.875 0.25-1.125 0.5-1.875l0.25-0.875c-4.25-0.25-8.625-0.75-12.75-0.75-3.75-0.25-7.25-0.25-11-0.25-3.5 0-7 0-10.5 0.25-7.25 0.25-14 0.875-20.75 1.875-4.25 0.5-8.125 1.125-12.375 1.875-3.5 0.5-6.75 1.125-10.25 1.875-3 0.5-6.25 1.125-9.25 1.875s-5.875 1.125-8.875 1.875c-2.75 0.75-5.875 1.125-8.875 1.875-2.75 0.5-5.625 1.125-8.375 1.625l-7-3.5-4 1.375-77.75-38.875-2.5-1.375 0.5 1.375 30.75 76.875 0.5 1.125c-0.5 0.25-0.75 0.5-1.125 0.75-0.875 0.75-1.625 1.125-2.5 1.875s-1.625 1.125-2.5 1.875-1.625 1.125-2.5 1.875c-0.75 0.75-1.625 1.125-2.375 1.875s-1.625 1.125-2.375 1.875-1.625 1.125-2.375 1.875-1.625 1.125-2.375 1.875-1.375 1.125-2.375 1.875-1.375 1.125-2.125 1.875-1.375 1.125-2.125 1.875-1.375 1.125-2.125 1.875-1.375 1.125-2.125 1.875-1.375 1.125-2.125 1.875-1.375 1.125-2.125 1.875-1.375 1.125-1.875 1.875c-0.75 0.75-1.375 1.125-1.875 1.875l-7.5 7.5c-0.75 0.75-1.125 1.125-1.625 1.875s-1.125 1.125-1.625 1.875-1.125 1.125-1.625 1.875-1.125 1.125-1.625 1.875-1.125 1.125-1.625 1.875-1.125 1.125-1.625 1.875-0.875 1.125-1.625 1.875-0.875 1.125-1.625 1.875c-0.5 0.75-0.875 1.125-1.375 1.875s-0.875 1.125-1.375 1.875-0.875 1.125-1.375 1.875-0.875 1.125-1.375 1.875-0.875 1.125-1.375 1.875-0.875 1.125-1.375 1.875-0.875 1.125-1.375 1.875-0.875 1.125-1.375 1.875-0.875 1.125-1.125 1.875c-0.5 0.75-0.875 1.125-1.125 1.875-0.5 0.75-0.75 1.125-1.125 1.875-0.5 0.75-0.75 1.125-1.125 1.875-0.5 0.75-0.75 1.125-1.125 1.875-0.5 0.75-0.75 1.125-1.125 1.875-0.5 0.75-0.75 1.125-1.125 1.875-0.5 0.75-0.75 1.125-1.125 1.875-0.25 0.75-0.75 1.125-0.875 1.875-0.25 0.75-0.75 1.125-0.875 1.875-0.25 0.75-0.75 1.125-0.875 1.875-0.25 0.75-0.75 1.125-0.875 1.875-0.25 0.75-0.75 1.125-0.875 1.875-0.25 0.75-0.75 1.125-0.875 1.875-0.25 0.75-0.75 1.125-0.875 1.875-0.25 0.75-0.5 1.125-0.875 1.875-0.25 0.75-0.5 1.125-0.875 1.875-0.25 0.75-0.5 1.125-0.875 1.875-0.25 0.75-0.5 1.125-0.75 1.875s-0.5 1.125-0.75 1.875-0.5 1.125-0.75 1.875-0.5 1.125-0.75 1.875-0.5 1.125-0.75 1.875-0.5 1.125-0.75 1.875-0.5 1.125-0.75 1.875-0.5 1.125-0.75 1.875-0.5 1.125-0.75 1.875-0.5 1.125-0.75 1.875-0.5 1.125-0.5 1.875c-0.25 0.75-0.5 1.125-0.5 1.875-0.25 0.75-0.5 1.125-0.5 1.875-0.25 0.75-0.25 1.125-0.5 1.875s-0.25 1.125-0.5 1.875-0.25 1.125-0.5 1.875-0.25 1.125-0.5 1.875-0.25 1.125-0.5 1.875-0.25 1.125-0.5 1.875-0.25 1.125-0.5 1.875-0.25 1.125-0.5 1.875-0.25 1.125-0.25 1.875-0.25 1.125-0.25 1.875-0.25 1.125-0.25 1.875-0.25 1.125-0.25 1.875-0.25 1.125-0.25 1.875-0.25 1.125-0.25 1.875-0.25 1.125-0.25 1.875-0.25 1.125-0.25 1.875-0.25 1.125-0.25 1.875 0 1.125-0.25 1.875c0 0.75 0 1.125-0.25 1.875 0 0.75 0 1.125-0.25 1.875 0 0.75 0 1.125-0.25 1.875v24.25c0 0.75 0 1.125 0.25 1.875 0 0.75 0 1.125 0.25 1.875 0 0.75 0 1.125 0.25 1.875 0 0.75 0.25 1.125 0.25 1.875s0.25 1.125 0.25 1.875 0.25 1.125 0.25 1.875 0.25 1.125 0.25 1.875 0.25 1.125 0.25 1.875 0.25 1.125 0.25 1.875 0.25 1.125 0.25 1.875 0.25 1.125 0.25 1.875 0.25 1.125 0.25 1.875 0.25 1.125 0.5 1.875c0 0.75 0.25 1.125 0.5 1.875s0.25 1.125 0.5 1.875 0.25 1.125 0.5 1.875 0.25 1.125 0.5 1.875 0.25 1.125 0.5 1.875 0.25 1.125 0.5 1.875 0.25 1.125 0.5 1.875 0.25 1.125 0.5 1.875 0.25 1.125 0.5 1.875 0.25 1.125 0.5 1.875 0.5 1.125 0.5 1.875 0.5 1.125 0.5 1.875c0.25 0.75 0.5 1.125 0.5 1.875 0.25 0.75 0.5 1.125 0.75 1.875s0.5 1.125 0.75 1.875 0.5 1.125 0.75 1.875 0.5 1.125 0.75 1.875 0.5 1.125 0.75 1.875 0.5 1.125 0.75 1.875 0.5 1.125 0.75 1.875 0.5 1.125 0.75 1.875 0.5 1.125 0.75 1.875 0.5 1.125 0.75 1.875 0.5 1.125 0.75 1.875 0.5 1.125 0.875 1.875c0.25 0.75 0.5 1.125 0.875 1.875 0.25 0.75 0.5 1.125 0.875 1.875 0.25 0.75 0.75 1.125 0.875 1.875 0.25 0.75 0.75 1.125 0.875 1.875 0.25 0.75 0.75 1.125 0.875 1.875 0.25 0.75 0.75 1.125 0.875 1.875 0.25 0.75 0.75 1.125 0.875 1.875 0.25 0.75 0.75 1.125 0.875 1.875 0.25 0.75 0.75 1.125 1.125 1.875 0.5 0.75 0.75 1.125 1.125 1.875 0.5 0.75 0.75 1.125 1.125 1.875 0.5 0.75 0.75 1.125 1.125 1.875 0.5 0.75 0.75 1.125 1.125 1.875 0.5 0.75 0.75 1.125 1.125 1.875 0.5 0.75 0.75 1.125 1.125 1.875 0.5 0.75 0.875 1.125 1.125 1.875 0.5 0.75 0.875 1.125 1.125 1.875 0.5 0.75 0.875 1.125 1.125 1.875 0.5 0.75 0.875 1.125 1.375 1.875s0.875 1.125 1.375 1.875 0.875 1.125 1.375 1.875 0.875 1.125 1.375 1.875 0.875 1.125 1.375 1.875 0.875 1.125 1.375 1.875 0.875 1.125 1.375 1.875 0.875 1.125 1.625 1.875c0.5 0.75 0.875 1.125 1.625 1.875 0.5 0.75 1.125 1.125 1.625 1.875s1.125 1.125 1.625 1.875 1.125 1.125 1.625 1.875 1.125 1.125 1.625 1.875 1.125 1.125 1.625 1.875l7.5 7.5c0.75 0.75 1.375 1.125 1.875 1.875 0.75 0.75 1.375 1.125 2.125 1.875s1.375 1.125 2.125 1.875 1.375 1.125 2.125 1.875 1.375 1.125 2.125 1.875 1.375 1.125 2.125 1.875 1.375 1.125 2.375 1.875c0.75 0.75 1.625 1.125 2.375 1.875s1.625 1.125 2.375 1.875 1.625 1.125 2.375 1.875c0.875 0.75 1.625 1.125 2.5 1.875s1.625 1.125 2.5 1.875 1.875 1.125 2.5 1.875 1.875 1.125 2.75 1.875 1.875 1.125 2.75 1.875 1.875 1.125 2.75 1.875 1.875 1.125 3 1.875c0.875 0.75 2.125 1.125 3 1.875s2.125 1.125 3 1.875c1.125 0.75 2.125 1.125 3.25 1.875s2.375 1.125 3.25 1.875c1.125 0.75 2.375 1.125 3.5 1.875s2.375 1.125 3.75 1.875c1.125 0.75 2.5 1.125 3.75 1.875 1.375 0.75 2.5 1.125 4 1.875 1.375 0.75 2.75 1.125 4.25 1.875 1.375 0.75 2.75 1.125 4.25 1.875 1.375 0.75 3 1.125 4.375 1.875 1.625 0.75 3 1.125 4.625 1.875s3.25 1.125 4.875 1.875c1.875 0.75 3.5 1.125 5.375 1.875s3.75 1.125 5.625 1.875c2.125 0.75 4.25 1.125 6 1.875 2.375 0.75 4.375 1.125 6.75 1.875 2.5 0.75 4.875 1.125 7.5 1.875 2.75 0.75 5.625 1.125 8.625 1.875 3.5 0.75 6.75 1.125 10.25 1.875 4.375 0.75 8.875 1.375 13.25 1.875 11 1.125 22.125 1.875 33.25 1.875h2.5c11.125 0 22.375-0.75 33.5-1.875 4.375-0.5 8.875-1.125 13.25-1.875 3.5-0.5 7-1.125 10.25-1.875 2.75-0.5 5.875-1.125 8.625-1.875 2.5-0.5 5.125-1.125 7.625-1.875 2.666-0.558 4.927-1.205 7.121-1.991l-0.371 0.116c2.49-0.581 4.578-1.225 6.605-1.993l-0.355 0.118c1.875-0.75 4-1.125 5.875-1.875s3.75-1.125 5.375-1.875 3.5-1.125 5.125-1.875 3.25-1.125 4.875-1.875 3-1.125 4.625-1.875 3-1.125 4.375-1.875 2.75-1.125 4.25-1.875c1.375-0.75 2.75-1.125 4-1.875 1.375-0.75 2.5-1.125 3.75-1.875 1.125-0.75 2.5-1.125 3.75-1.875 1.125-0.75 2.375-1.125 3.5-1.875s2.375-1.125 3.5-1.875 2.375-1.125 3.25-1.875c1.125-0.75 2.125-1.125 3.25-1.875s2.125-1.125 3-1.875 2.125-1.125 3-1.875 1.875-1.125 3-1.875c0.875-0.75 1.875-1.125 2.75-1.875s1.875-1.125 2.75-1.875 1.875-1.125 2.75-1.875 1.875-1.125 2.5-1.875c0.875-0.75 1.625-1.125 2.5-1.875s1.625-1.125 2.5-1.875 1.625-1.125 2.375-1.875 1.625-1.125 2.375-1.875 1.625-1.125 2.375-1.875 1.375-1.125 2.375-1.875c0.75-0.75 1.375-1.125 2.375-1.875 0.75-0.75 1.375-1.125 2.125-1.875s1.375-1.125 2.125-1.875 1.375-1.125 2.125-1.875 1.375-1.125 2.125-1.875 1.375-1.125 1.875-1.875c0.75-0.75 1.375-1.125 1.875-1.875l7.5-7.5c0.75-0.75 1.125-1.125 1.625-1.875s1.125-1.125 1.625-1.875 1.125-1.125 1.625-1.875 1.125-1.125 1.625-1.875 1.125-1.125 1.625-1.875 0.875-1.125 1.625-1.875c0.5-0.75 0.875-1.125 1.625-1.875 0.5-0.75 0.875-1.125 1.375-1.875s0.875-1.125 1.375-1.875 0.875-1.125 1.375-1.875 0.875-1.125 1.375-1.875 0.875-1.125 1.375-1.875 0.875-1.125 1.375-1.875 0.875-1.125 1.375-1.875 0.875-1.125 1.125-1.875c0.5-0.75 0.875-1.125 1.125-1.875 0.5-0.75 0.875-1.125 1.125-1.875 0.5-0.75 0.75-1.125 1.125-1.875 0.5-0.75 0.75-1.125 1.125-1.875 0.5-0.75 0.75-1.125 1.125-1.875 0.5-0.75 0.75-1.125 1.125-1.875 0.5-0.75 0.75-1.125 1.125-1.875 0.5-0.75 0.75-1.125 1.125-1.875 0.5-0.75 0.75-1.125 0.875-1.875 0.25-0.75 0.75-1.125 0.875-1.875 0.25-0.75 0.75-1.125 0.875-1.875 0.25-0.75 0.75-1.125 0.875-1.875 0.25-0.75 0.75-1.125 0.875-1.875 0.25-0.75 0.75-1.125 0.875-1.875 0.25-0.75 0.75-1.125 0.875-1.875 0.25-0.75 0.75-1.125 0.875-1.875 0.25-0.75 0.5-1.125 0.875-1.875 0.25-0.75 0.5-1.125 0.875-1.875 0.25-0.75 0.5-1.125 0.75-1.875s0.5-1.125 0.75-1.875 0.5-1.125 0.75-1.875 0.5-1.125 0.75-1.875 0.5-1.125 0.75-1.875 0.5-1.125 0.75-1.875 0.5-1.125 0.75-1.875 0.5-1.125 0.75-1.875 0.5-1.125 0.75-1.875 0.5-1.125 0.75-1.875 0.5-1.125 0.75-1.875 0.5-1.125 0.5-1.875c0.25-0.75 0.5-1.125 0.5-1.875 0.25-0.75 0.25-1.125 0.5-1.875s0.5-1.125 0.5-1.875c0.25-0.75 0.25-1.125 0.5-1.875s0.25-1.125 0.5-1.875 0.25-1.125 0.5-1.875 0.25-1.125 0.5-1.875 0.25-1.125 0.5-1.875c0-0.5 0.25-0.75 0.25-1.125-4.625 0.5-9.25 0.875-14 1.125-3.5 0.25-7 0.25-10.75 0.25-4 0-8.125 0-12.125-0.25-6.75-0.25-13.25-0.875-19.5-1.875-3.75-0.5-7.625-1.125-11.375-1.875-3-0.5-5.875-1.125-8.875-1.875-2.5-0.5-5.125-1.125-7.5-1.875-2.125-0.5-4.375-1.125-6.5-1.875-1.875-0.5-4-1.125-5.875-1.875-1.875-0.5-3.5-1.125-5.375-1.875-1.625-0.75-3.25-1.125-4.875-1.875s-3-1.125-4.625-1.875c-1.375-0.75-3-1.125-4.375-1.875s-2.75-1.125-4.25-1.875c-1.375-0.75-2.5-1.125-4-1.875-1.125-0.75-2.5-1.125-3.75-1.875-1.125-0.75-2.375-1.125-3.5-1.875s-2.375-1.125-3.5-1.875-2.125-1.125-3.25-1.875-2.125-1.125-3-1.875-2.125-1.125-3-1.875-1.875-1.125-3-1.875c-0.875-0.75-1.875-1.125-2.75-1.875s-1.875-1.125-2.75-1.875-1.875-1.125-2.5-1.875c-0.875-0.75-1.625-1.125-2.5-1.875s-1.625-1.125-2.5-1.875c-0.75-0.75-1.625-1.125-2.375-1.875s-1.625-1.125-2.375-1.875-1.625-1.125-2.375-1.875-1.375-1.125-2.125-1.875-1.375-1.125-2.125-1.875-1.375-1.125-2.125-1.875-1.375-1.125-2.125-1.875-1.375-1.125-2.125-1.875-1.375-1.125-1.875-1.875l-5.625-5.625c-0.75-0.75-1.125-1.125-1.625-1.875s-1.125-1.125-1.625-1.875-1.125-1.125-1.625-1.875-1.125-1.125-1.625-1.875-1.125-1.125-1.625-1.875-0.875-1.125-1.625-1.875c-0.5-0.75-0.875-1.125-1.625-1.875-0.5-0.75-0.875-1.125-1.375-1.875s-0.875-1.125-1.375-1.875-0.875-1.125-1.375-1.875-0.875-1.125-1.375-1.875-0.875-1.125-1.375-1.875-0.875-1.125-1.375-1.875-0.875-1.125-1.125-1.875c-0.5-0.75-0.875-1.125-1.125-1.875-0.5-0.75-0.75-1.125-1.125-1.875-0.5-0.75-0.75-1.125-1.125-1.875-0.5-0.75-0.75-1.125-1.125-1.875-0.5-0.75-0.75-1.125-1.125-1.875-0.5-0.75-0.75-1.125-1.125-1.875-0.5-0.75-0.75-1.125-1.125-1.875-0.5-0.75-0.75-1.125-1.125-1.875-0.25-0.75-0.75-1.125-0.875-1.875-0.25-0.75-0.75-1.125-0.875-1.875-0.25-0.75-0.75-1.125-0.875-1.875-0.25-0.75-0.75-1.125-0.875-1.875-0.25-0.75-0.75-1.125-0.875-1.875-0.25-0.75-0.75-1.125-0.875-1.875-0.25-0.75-0.75-1.125-0.875-1.875-0.25-0.75-0.5-1.125-0.875-1.875-0.25-0.75-0.5-1.125-0.875-1.875-0.25-0.75-0.5-1.125-0.875-1.875-0.25-0.75-0.5-1.125-0.75-1.875-3.125-4.625-3.375-5.125-3.625-5.75zM876.090 365.375v-11.375c0-0.5 0-0.875-0.25-1.625 0-0.5 0-0.875-0.25-1.625 0-0.5 0-0.875-0.25-1.625 0-0.5-0.25-0.875-0.25-1.625 0-0.5-0.25-0.875-0.25-1.625 0-0.5-0.25-0.875-0.25-1.625 0-0.5-0.25-0.875-0.25-1.625 0-0.5-0.25-0.875-0.25-1.625 0-0.5-0.25-0.875-0.25-1.625 0-0.5-0.25-0.875-0.25-1.625 0-0.5-0.25-0.875-0.25-1.625 0-0.5-0.25-0.875-0.25-1.625 0-0.5-0.25-0.875-0.5-1.625-0.25-0.5-0.25-0.875-0.5-1.625-0.25-0.5-0.25-0.875-0.5-1.625-0.25-0.5-0.25-0.875-0.5-1.625-0.25-0.5-0.25-0.875-0.5-1.625-0.25-0.5-0.25-0.875-0.5-1.625-0.25-0.5-0.25-0.875-0.5-1.625-0.25-0.5-0.25-0.875-0.5-1.625-0.25-0.5-0.25-0.875-0.5-1.625-0.25-0.5-0.25-0.875-0.5-1.625-0.25-0.5-0.5-0.875-0.5-1.625-0.25-0.5-0.5-0.875-0.5-1.625-0.25-0.5-0.5-0.875-0.5-1.625-0.25-0.5-0.5-0.875-0.75-1.625-0.25-0.5-0.5-0.875-0.75-1.625-0.25-0.5-0.5-0.875-0.75-1.625-0.25-0.5-0.5-0.875-0.75-1.625-0.25-0.5-0.5-0.875-0.75-1.625-0.25-0.5-0.5-0.875-0.75-1.625-0.25-0.5-0.5-0.875-0.75-1.625-0.25-0.5-0.5-0.875-0.75-1.625-0.25-0.5-0.5-0.875-0.75-1.625-0.25-0.5-0.5-0.875-0.75-1.625-0.25-0.5-0.5-0.875-0.75-1.625-0.25-0.5-0.5-0.875-0.875-1.625-0.25-0.5-0.5-0.875-0.875-1.625-0.25-0.5-0.5-0.875-0.875-1.625-0.25-0.5-0.5-0.875-0.875-1.625-0.25-0.5-0.75-0.875-0.875-1.625-0.25-0.5-0.75-0.875-0.875-1.625-0.25-0.5-0.75-0.875-0.875-1.625-0.25-0.5-0.75-0.875-0.875-1.625-0.25-0.5-0.75-0.875-0.875-1.625-0.25-0.5-0.75-0.875-0.875-1.625-0.25-0.5-0.75-0.875-0.875-1.625-0.25-0.5-0.75-0.875-0.875-1.625-0.5-0.5-0.75-0.875-1.125-1.625-0.5-0.5-0.75-0.875-1.125-1.625-0.5-0.5-0.75-0.875-1.125-1.625-0.5-0.5-0.75-0.875-1.125-1.625-0.5-0.5-0.75-0.875-1.125-1.625-0.5-0.5-0.75-0.875-1.125-1.625-0.5-0.5-0.75-0.875-1.125-1.625-0.5-0.5-0.75-0.875-1.125-1.625-0.5-0.5-0.75-0.875-1.125-1.625-0.5-0.5-0.875-0.875-1.125-1.625-0.5-0.5-0.875-0.875-1.125-1.625-0.5-0.5-0.875-0.875-1.375-1.625-0.5-0.5-0.875-0.875-1.375-1.625-0.5-0.5-0.875-0.875-1.375-1.625-0.5-0.5-0.875-0.875-1.375-1.625-0.5-0.5-0.875-0.875-1.375-1.625-0.5-0.5-0.875-0.875-1.375-1.625-0.5-0.5-0.875-0.875-1.375-1.625-0.5-0.5-0.875-0.875-1.375-1.625-0.5-0.5-0.875-0.875-1.375-1.625-0.5-0.5-0.875-0.875-1.375-1.625l-3.25-3.25c-0.5-0.5-1.125-0.875-1.625-1.625-0.5-0.5-1.125-0.875-1.625-1.625-0.5-0.5-1.125-0.875-1.625-1.625-0.5-0.5-1.125-0.875-1.625-1.625-0.5-0.5-1.125-0.875-1.625-1.625-0.5-0.5-1.125-0.875-1.625-1.625-0.5-0.5-1.125-0.875-1.625-1.625-0.75-0.5-1.125-0.875-1.875-1.625-0.75-0.5-1.125-0.875-1.875-1.625-0.75-0.5-1.125-0.875-1.875-1.625-0.75-0.5-1.125-0.875-1.875-1.625-0.75-0.5-1.125-0.875-1.875-1.625-0.75-0.5-1.125-0.875-1.875-1.625-0.75-0.5-1.375-0.875-1.875-1.625-0.75-0.5-1.375-0.875-1.875-1.625-0.75-0.5-1.375-0.875-2.125-1.625-0.75-0.5-1.375-0.875-2.125-1.625l-0.75-0.5 0.25-0.875 20-65 0.25-1.125-2.125 1.125-66.5 39.25-0.875-0.25c-2.125-0.5-4.25-0.875-6-1.625-2.125-0.5-4.25-0.875-6.25-1.625-2.125-0.5-4.25-0.875-6.5-1.625-2.375-0.5-4.375-0.875-6.75-1.625-2.375-0.5-4.875-1.125-7.25-1.625-2.75-0.5-5.375-1.125-8.125-1.625-3.25-0.5-6.5-1.125-9.75-1.625-5.375-0.75-10.75-1.125-15.875-1.625-2.75-0.25-5.875-0.25-8.625-0.25-3.75 0-7.5 0-11.125 0.25-6.5 0.25-12.75 0.75-19.125 1.625-3.75 0.5-7.5 0.875-11 1.625-2.75 0.5-5.875 0.875-8.625 1.625-2.375 0.5-4.875 0.875-7.25 1.625-2.125 0.5-4.25 0.875-6.25 1.625-1.875 0.5-3.75 0.875-5.625 1.625-1.875 0.5-3.5 0.875-5.125 1.625-1.625 0.5-3.25 0.875-4.875 1.625-1.375 0.5-3 0.875-4.375 1.625-1.375 0.5-2.75 0.875-4.25 1.625-1.375 0.5-2.5 0.875-4 1.625-1.125 0.5-2.5 0.875-3.75 1.625-1.125 0.5-2.375 0.875-3.75 1.625-1.125 0.5-2.375 0.875-3.5 1.625-1.125 0.5-2.125 0.875-3.25 1.625-1.125 0.5-2.125 0.875-3.25 1.625-0.875 0.5-2.125 0.875-3 1.625-0.875 0.5-1.875 0.875-3 1.625-0.875 0.5-1.875 0.875-2.75 1.625-0.875 0.5-1.875 0.875-2.75 1.625-0.875 0.5-1.875 0.875-2.5 1.625-0.875 0.5-1.625 0.875-2.5 1.625-0.875 0.5-1.625 0.875-2.5 1.625-0.75 0.5-1.625 0.875-2.375 1.625-0.75 0.5-1.625 0.875-2.375 1.625-0.75 0.5-1.625 0.875-2.375 1.625-0.75 0.5-1.375 0.875-2.375 1.625-0.75 0.5-1.375 0.875-2.125 1.625-0.75 0.5-1.375 0.875-2.125 1.625-0.75 0.5-1.375 0.875-2.125 1.625-0.75 0.5-1.375 0.875-2.125 1.625-0.75 0.5-1.375 0.875-1.875 1.625-0.75 0.5-1.375 0.875-1.875 1.625-0.75 0.5-1.125 0.875-1.875 1.625-0.75 0.5-1.125 0.875-1.875 1.625-0.75 0.5-1.125 0.875-1.875 1.625-0.75 0.5-1.125 0.875-1.875 1.625-0.5 0.5-1.125 0.875-1.625 1.625-0.5 0.5-1.125 0.875-1.625 1.625-0.5 0.5-1.125 0.875-1.625 1.625-0.5 0.5-1.125 0.875-1.625 1.625l-3.25 3.25c-0.5 0.5-0.875 0.875-1.375 1.625-0.5 0.5-0.875 0.875-1.375 1.625-0.5 0.5-0.875 0.875-1.375 1.625-0.5 0.5-0.875 0.875-1.375 1.625-0.5 0.5-0.875 0.875-1.375 1.625-0.5 0.5-0.875 0.875-1.375 1.625-0.5 0.5-0.875 0.875-1.375 1.625-0.5 0.5-0.875 0.875-1.125 1.625-0.5 0.5-0.875 0.875-1.125 1.625-0.5 0.5-0.875 0.875-1.125 1.625-0.5 0.5-0.75 0.875-1.125 1.625-0.5 0.5-0.75 0.875-1.125 1.625-0.5 0.5-0.75 0.875-1.125 1.625-0.5 0.5-0.75 0.875-1.125 1.625-0.5 0.5-0.75 0.875-1.125 1.625-0.5 0.5-0.75 0.875-1.125 1.625-0.5 0.5-0.75 0.875-1.125 1.625-0.25 0.5-0.75 0.875-0.875 1.625-0.25 0.5-0.75 0.875-0.875 1.625-0.25 0.5-0.75 0.875-0.875 1.625-0.25 0.5-0.75 0.875-0.875 1.625-0.25 0.5-0.75 0.875-0.875 1.625-0.25 0.5-0.75 0.875-0.875 1.625-0.25 0.5-0.75 0.875-0.875 1.625-0.25 0.5-0.75 0.875-0.875 1.625-0.25 0.5-0.5 0.875-0.875 1.625-0.25 0.5-0.5 0.875-0.875 1.625-0.25 0.5-0.5 0.875-0.75 1.625-0.25 0.5-0.5 0.875-0.75 1.625-0.25 0.5-0.5 0.875-0.75 1.625-0.25 0.5-0.5 0.875-0.75 1.625-0.25 0.5-0.5 0.875-0.75 1.625-0.25 0.5-0.5 0.875-0.75 1.625-0.25 0.5-0.5 0.875-0.75 1.625-0.25 0.5-0.5 0.875-0.75 1.625-0.25 0.5-0.5 0.875-0.75 1.625-0.25 0.5-0.5 0.875-0.75 1.625-0.25 0.5-0.5 0.875-0.75 1.625-0.25 0.5-0.5 0.875-0.75 1.625-0.25 0.5-0.5 0.875-0.5 1.625-0.25 0.5-0.5 0.875-0.5 1.625-0.25 0.5-0.5 0.875-0.5 1.625-0.25 0.5-0.5 0.875-0.5 1.625-0.25 0.5-0.5 0.875-0.5 1.625-0.25 0.5-0.25 0.875-0.5 1.625-0.25 0.5-0.25 0.875-0.5 1.625-0.25 0.5-0.25 0.875-0.5 1.625-0.25 0.5-0.25 0.875-0.5 1.625-0.25 0.5-0.25 0.875-0.5 1.625-0.25 0.5-0.25 0.875-0.5 1.625-0.25 0.5-0.25 0.875-0.5 1.625-0.25 0.5-0.25 0.875-0.5 1.625-0.25 0.5-0.25 0.875-0.5 1.625-0.25 0.5-0.25 0.875-0.25 1.625 0 0.5-0.25 0.875-0.25 1.625 0 0.5-0.25 0.875-0.25 1.625 0 0.5-0.25 0.875-0.25 1.625 0 0.5-0.25 0.875-0.25 1.625 0 0.5-0.25 0.875-0.25 1.625 0 0.5-0.25 0.875-0.25 1.625 0 0.5-0.25 0.875-0.25 1.625 0 0.5-0.25 0.875-0.25 1.625 0 0.5-0.25 0.875-0.25 1.625 0 0.5-0.25 0.875-0.25 1.625 0 0.5-0.25 0.875-0.25 1.625 0 0.5 0 0.875-0.25 1.625 0 0.5 0 0.875-0.25 1.625 0 0.5 0 0.875-0.25 1.625v29c0 0.5 0 0.875 0.25 1.625 0 0.5 0 0.875 0.25 1.625 0 0.5 0 0.875 0.25 1.625 0 0.5 0.25 0.875 0.25 1.625 0 0.5 0.25 0.875 0.25 1.625 0 0.5 0.25 0.875 0.25 1.625 0 0.5 0.25 0.875 0.25 1.625 0 0.5 0.25 0.875 0.25 1.625 0 0.5 0.25 0.875 0.25 1.625 0 0.5 0.25 0.875 0.25 1.625 0 0.5 0.25 0.875 0.25 1.625 0 0.5 0.25 0.875 0.25 1.625 0 0.5 0.25 0.875 0.25 1.625 0 0.5 0.25 0.875 0.25 1.625 0 0.5 0.25 0.875 0.25 1.625 0.25 0.5 0.25 0.875 0.5 1.625 0.25 0.5 0.25 0.875 0.5 1.625 0.25 0.5 0.25 0.875 0.5 1.625 0.25 0.5 0.25 0.875 0.5 1.625 0.25 0.5 0.25 0.875 0.5 1.625 0.25 0.5 0.25 0.875 0.5 1.625 0.25 0.5 0.25 0.875 0.5 1.625 0.25 0.5 0.25 0.875 0.5 1.625 0.25 0.5 0.25 0.875 0.5 1.625 0.25 0.5 0.5 0.875 0.5 1.625 0.25 0.5 0.5 0.875 0.5 1.625 0.25 0.5 0.5 0.875 0.5 1.625 0.25 0.5 0.5 0.875 0.5 1.625 0.25 0.5 0.5 0.875 0.5 1.625 0.25 0.5 0.5 0.875 0.75 1.625 0.25 0.5 0.5 0.875 0.75 1.625 0.25 0.5 0.5 0.875 0.75 1.625 0.25 0.5 0.5 0.875 0.75 1.625 0.25 0.5 0.5 0.875 0.75 1.625 0.25 0.5 0.5 0.875 0.75 1.625 0.25 0.5 0.5 0.875 0.75 1.625 0.25 0.5 0.5 0.875 0.75 1.625 0.25 0.5 0.5 0.875 0.75 1.625 0.25 0.5 0.5 0.875 0.75 1.625 0.25 0.5 0.5 0.875 0.75 1.625 0.25 0.5 0.5 0.875 0.875 1.625 0.25 0.5 0.5 0.875 0.875 1.625 0.25 0.5 0.5 0.875 0.875 1.625 0.25 0.5 0.75 0.875 0.875 1.625 0.25 0.5 0.75 0.875 0.875 1.625 0.25 0.5 0.75 0.875 0.875 1.625 0.25 0.5 0.75 0.875 0.875 1.625 0.25 0.5 0.75 0.875 0.875 1.625 0.25 0.5 0.75 0.875 0.875 1.625 0.25 0.5 0.75 0.875 0.875 1.625 0.25 0.5 0.75 0.875 0.875 1.625 0.25 0.5 0.75 0.875 1.125 1.625 0.5 0.5 0.75 0.875 1.125 1.625 0.5 0.5 0.75 0.875 1.125 1.625 0.5 0.5 0.75 0.875 1.125 1.625 0.5 0.5 0.75 0.875 1.125 1.625 0.5 0.5 0.75 0.875 1.125 1.625 0.5 0.5 0.75 0.875 1.125 1.625 0.5 0.5 0.875 0.875 1.125 1.625 0.5 0.5 0.875 0.875 1.125 1.625 0.5 0.5 0.875 0.875 1.125 1.625 0.5 0.5 0.875 0.875 1.375 1.625 0.5 0.5 0.875 0.875 1.375 1.625 0.5 0.5 0.875 0.875 1.375 1.625 0.5 0.5 0.875 0.875 1.375 1.625 0.5 0.5 0.875 0.875 1.375 1.625 0.5 0.5 0.875 0.875 1.375 1.625 0.5 0.5 0.875 0.875 1.375 1.625l3.25 3.25c0.5 0.5 1.125 0.875 1.625 1.625 0.5 0.5 1.125 0.875 1.625 1.625 0.5 0.5 1.125 0.875 1.625 1.625 0.5 0.5 1.125 0.875 1.625 1.625 0.5 0.5 1.125 0.875 1.875 1.625 0.75 0.5 1.125 0.875 1.875 1.625 0.75 0.5 1.125 0.875 1.875 1.625 0.75 0.5 1.125 0.875 1.875 1.625 0.75 0.5 1.375 0.875 1.875 1.625 0.75 0.5 1.375 0.875 1.875 1.625 0.75 0.5 1.375 0.875 2.125 1.625 0.75 0.5 1.375 0.875 2.125 1.625 0.75 0.5 1.375 0.875 2.125 1.625 0.75 0.5 1.375 0.875 2.125 1.625 0.75 0.5 1.375 0.875 2.375 1.625 0.75 0.5 1.625 0.875 2.375 1.625 0.75 0.5 1.625 0.875 2.375 1.625 0.75 0.5 1.625 0.875 2.375 1.625 0.875 0.5 1.625 0.875 2.5 1.625 0.875 0.5 1.625 0.875 2.5 1.625 0.875 0.5 1.875 0.875 2.5 1.625 0.875 0.5 1.875 0.875 2.75 1.625 0.875 0.5 1.875 0.875 2.75 1.625 0.875 0.5 1.875 0.875 3 1.625 0.875 0.5 2.125 0.875 3 1.625 1.125 0.5 2.125 0.875 3.25 1.625 1.125 0.5 2.125 0.875 3.25 1.625 1.125 0.5 2.375 0.875 3.5 1.625 1.125 0.5 2.375 0.875 3.75 1.625 1.125 0.5 2.5 0.875 3.75 1.625 1.375 0.5 2.5 0.875 4 1.625 1.375 0.5 2.75 0.875 4.25 1.625 1.375 0.5 3 0.875 4.375 1.625 1.625 0.5 3.25 0.875 4.875 1.625 1.625 0.5 3.5 0.875 5.125 1.625 1.875 0.5 3.75 0.875 5.875 1.625 2.125 0.5 4.25 1.125 6.25 1.625 2.375 0.5 4.875 1.125 7.25 1.625 2.75 0.5 5.875 1.125 8.625 1.625 3.75 0.75 7.5 1.125 11.125 1.625 9.25 1.125 19.125 1.625 28.875 1.625h1.375c9.25 0 18.375-0.75 27.5-1.625 3.75-0.5 7.25-0.875 10.75-1.625 2.75-0.5 5.625-0.875 8.375-1.625 2.375-0.5 4.625-0.875 7-1.625 2.125-0.5 4.25-0.875 6.25-1.625 1.875-0.5 3.75-0.875 5.625-1.625 1.625-0.5 3.5-0.875 5.125-1.625 1.625-0.5 3.25-0.875 4.625-1.625 1.375-0.5 3-0.875 4.375-1.625 1.375-0.5 2.75-0.875 4.25-1.625 1.375-0.5 2.5-0.875 4-1.625 1.125-0.5 2.5-0.875 3.75-1.625 1.125-0.5 2.375-0.875 3.5-1.625 1.125-0.5 2.375-0.875 3.5-1.625 1.125-0.5 2.125-0.875 3.25-1.625 1.125-0.5 2.125-0.875 3.25-1.625 0.875-0.5 2.125-0.875 3-1.625 0.875-0.5 1.875-0.875 3-1.625 0.875-0.5 1.875-0.875 2.75-1.625 0.875-0.5 1.875-0.875 2.75-1.625 0.875-0.5 1.875-0.875 2.5-1.625 0.875-0.5 1.625-0.875 2.5-1.625 0.875-0.5 1.625-0.875 2.5-1.625 0.875-0.5 1.625-0.875 2.5-1.625 0.75-0.5 1.625-0.875 2.375-1.625 0.75-0.5 1.625-0.875 2.375-1.625 0.75-0.5 1.375-0.875 2.375-1.625 0.75-0.5 1.375-0.875 2.125-1.625 0.75-0.5 1.375-0.875 2.125-1.625 0.75-0.5 1.375-0.875 2.125-1.625 0.75-0.5 1.375-0.875 2.125-1.625 0.75-0.5 1.375-0.875 1.875-1.625 0.75-0.5 1.375-0.875 1.875-1.625 0.75-0.5 1.125-0.875 1.875-1.625 0.75-0.5 1.125-0.875 1.875-1.625 0.75-0.5 1.125-0.875 1.875-1.625 0.75-0.5 1.125-0.875 1.875-1.625 0.5-0.5 1.125-0.875 1.625-1.625 0.5-0.5 1.125-0.875 1.625-1.625 0.5-0.5 1.125-0.875 1.625-1.625 0.5-0.5 1.125-0.875 1.625-1.625 0.5-0.5 1.125-0.875 1.625-1.625l3.25-3.25c0.5-0.5 0.875-0.875 1.375-1.625 0.5-0.5 0.875-0.875 1.375-1.625 0.5-0.5 0.875-0.875 1.375-1.625 0.5-0.5 0.875-0.875 1.375-1.625 0.5-0.5 0.875-0.875 1.375-1.625 0.5-0.5 0.875-0.875 1.375-1.625 0.5-0.5 0.875-0.875 1.375-1.625 0.5-0.5 0.875-0.875 1.375-1.625 0.5-0.5 0.875-0.875 1.125-1.625 0.5-0.5 0.75-0.875 1.125-1.625 0.5-0.5 0.875-0.875 1.125-1.625 0.5-0.5 0.75-0.875 1.125-1.625 0.5-0.5 0.75-0.875 1.125-1.625 0.5-0.5 0.75-0.875 1.125-1.625 0.5-0.5 0.75-0.875 1.125-1.625 0.5-0.5 0.75-0.875 1.125-1.625 0.5-0.5 0.75-0.875 1.125-1.625 0.5-0.5 0.75-0.875 0.875-1.625 0.25-0.5 0.75-0.875 0.875-1.625 0.25-0.5 0.75-0.875 0.875-1.625 0.25-0.5 0.75-0.875 0.875-1.625 0.25-0.5 0.75-0.875 0.875-1.625 0.25-0.5 0.75-0.875 0.875-1.625 0.25-0.5 0.75-0.875 0.875-1.625 0.25-0.5 0.5-0.875 0.875-1.625 0.25-0.5 0.75-0.875 0.875-1.625 0.25-0.5 0.5-0.875 0.875-1.625 0.25-0.5 0.5-0.875 0.875-1.625 0.25-0.5 0.5-0.875 0.875-1.625 0.25-0.5 0.5-0.875 0.75-1.625 0.25-0.5 0.5-0.875 0.75-1.625 0.25-0.5 0.5-0.875 0.75-1.625 0.25-0.5 0.5-0.875 0.75-1.625 0.25-0.5 0.5-0.875 0.75-1.625 0.25-0.5 0.5-0.875 0.75-1.625 0.25-0.5 0.5-0.875 0.75-1.625 0.25-0.5 0.5-0.875 0.75-1.625 0.25-0.5 0.5-0.875 0.75-1.625 0.25-0.5 0.5-0.875 0.75-1.625 0.25-0.5 0.5-0.875 0.75-1.625 0.25-0.5 0.5-0.875 0.5-1.625 0.25-0.5 0.5-0.875 0.5-1.625 0.25-0.5 0.5-0.875 0.5-1.625 0.25-0.5 0.25-0.875 0.5-1.625 0.25-0.5 0.25-0.875 0.5-1.625 0.25-0.5 0.25-0.875 0.5-1.625 0.25-0.5 0.25-0.875 0.5-1.625 0.25-0.5 0.25-0.875 0.5-1.625 0.25-0.5 0.25-0.875 0.5-1.625 0.25-0.5 0.25-0.875 0.5-1.625 0.25-0.5 0.25-0.875 0.5-1.625 0.25-0.5 0.25-0.875 0.5-1.625 0.25-0.5 0.25-0.875 0.5-1.625 0.25-0.5 0.25-0.875 0.5-1.625 0.25-0.5 0.25-0.875 0.5-1.625 0-0.5 0.25-0.875 0.25-1.625 0-0.5 0.25-0.875 0.25-1.625 0-0.5 0.25-0.875 0.25-1.625 0-0.5 0.25-0.875 0.25-1.625 0-0.5 0.25-0.875 0.25-1.625 0-0.5 0.25-0.875 0.25-1.625 0-0.5 0.25-0.875 0.25-1.625 0-0.5 0.25-0.875 0.25-1.625 0-0.5 0.25-0.875 0.25-1.625 0-0.5 0-0.875 0.25-1.625 0-0.5 0-0.875 0.25-1.625 0-0.5 0-0.875 0.25-1.625 0-0.5 0-0.875 0.25-1.625 0-0.5 0-0.875 0.25-1.625v-11.375h-3.125zM589.715 448c-12.625 0-25.375-12.75-25.375-25.375 0-12.75 12.75-25.375 25.375-25.375 19.375 0 31.875 12.625 31.875 25.375-0.125 12.625-12.75 25.375-31.875 25.375zM729.59 448c-12.625 0-25.375-12.75-25.375-25.375 0-12.75 12.75-25.375 25.375-25.375 19.125 0 31.875 12.625 31.875 25.375 0 12.625-12.75 25.375-31.875 25.375zM328.715 632.75c-19.125 0-38.375-12.625-38.375-31.625 0-19.125 19.375-31.875 38.375-31.875s31.875 12.75 31.875 31.875-12.875 31.625-31.875 31.625zM506.965 632.75c-19.125 0-38.125-12.625-38.125-31.625 0-19.125 19.125-31.875 38.125-31.875 19.125 0 31.875 12.75 31.875 31.875s-12.875 31.625-31.875 31.625z" />
<glyph unicode="&#xe927;" glyph-name="weixingfukuan" d="M390.4 344.5c-4.1-2.1-8.3-3.1-13.4-3.1-11.4 0-20.7 6.2-25.9 15.5l-2.1 4.1-81.7 178c-1 2.1-1 4.1-1 6.2 0 8.3 6.2 14.5 14.5 14.5 3.1 0 6.2-1 9.3-3.1l96.2-68.3c7.2-4.1 15.5-7.2 24.8-7.2 5.2 0 10.3 1 15.5 3.1l451.1 200.7c-80.7 95.2-214.1 157.3-365.2 157.3-246.2 0-446.9-166.6-446.9-372.4 0-111.7 60-213.1 154.1-281.4 7.2-5.2 12.4-14.5 12.4-23.8 0-3.1-1-6.2-2.1-9.3-7.2-27.9-19.7-73.5-19.7-75.5-1-3.1-2.1-7.2-2.1-11.4 0-8.3 6.2-14.5 14.5-14.5 3.1 0 6.2 1 8.3 3.1l97.2 56.9c7.2 4.1 15.5 7.2 23.8 7.2 4.1 0 9.3-1 13.4-2.1 45.5-13.4 95.2-20.7 145.9-20.7 246.2 0 446.9 166.6 446.9 372.4 0 62.1-18.6 121-50.7 172.8l-517.1-299z" />
<glyph unicode="&#xe928;" glyph-name="wode1" d="M859.4 48.4h-696.6c-14.4 0-28.8 7.2-37.8 18-9 12.6-12.6 27-9 41.4 36 183.6 185.4 320.4 365.4 334.8 60.3 0 125.55-7.65 190.8-34.2 18.9-7.65 25.2-12.6 36-18 104.4-59.4 176.4-162 199.8-282.6 3.6-14.4 0-28.8-10.8-41.4-9-10.8-23.4-18-37.8-18zM163.7 77.65c-5.85 0-11.25 2.25-14.4 6.3-0.45 0.45-0.45 0.9-0.9 1.35-4.5 4.5-4.95 12.15-4.050 16.65 33.3 171 173.25 299.25 340.65 311.4h13.5c80.55 0 157.95-25.2 195.75-49.050 99-59.4 165.15-152.55 185.85-262.35 0.9-6.3-0.45-12.15-4.95-18-3.15-4.050-8.55-6.3-14.4-6.3h-697.050zM498.5 402.55c78.3 0 153.45-24.3 189.9-47.25h0.45c96.3-57.15 160.2-147.6 180-254.7 0.45-2.25 0.45-5.4-3.15-9.45-0.45-0.9-2.7-1.8-5.4-1.8h-696.6c-2.7 0-4.95 0.9-5.4 1.8s-1.35 1.8-2.25 2.25c-0.9 0.9-1.8 3.6-0.9 6.75 32.4 166.050 167.85 290.25 330.3 302.4 4.050-0.45 8.55 0 13.050 0zM498.5 425.050c-4.5 0-9.45 0-13.95-0.45-172.8-12.6-316.8-144-351-320.4-1.8-9 0-19.8 7.2-27 5.4-7.2 14.4-10.8 23.4-10.8h696.6c9 0 18 3.6 23.4 10.8s9 16.2 7.2 27c-21.6 115.2-90 209.7-190.8 270-38.25 23.85-116.55 50.85-202.050 50.85zM512 426.4c-113.4 0-207 93.6-207 207s93.6 207 207 207 207-93.6 207-207-93.6-207-207-207zM512 455.65c-98.1 0-177.75 79.65-177.75 177.75s79.65 177.75 177.75 177.75 177.75-79.65 177.75-177.75-79.65-177.75-177.75-177.75zM512 799.9c91.8 0 166.5-74.7 166.5-166.5s-74.7-166.5-166.5-166.5-166.5 74.7-166.5 166.5 74.7 166.5 166.5 166.5zM512 822.4c-104.4 0-189-84.6-189-189s84.6-189 189-189 189 84.6 189 189-84.6 189-189 189z" />
<glyph unicode="&#xe929;" glyph-name="wode" d="M230.4 680.96c0-153.6 125.44-279.040 281.6-279.040s281.6 125.44 281.6 279.040c-2.56 153.6-128 279.040-281.6 279.040s-281.6-125.44-281.6-279.040zM747.52 432.64c-61.44-56.32-143.36-92.16-235.52-92.16s-174.080 35.84-235.52 92.16c-163.84-84.48-276.48-256-276.48-453.12 0-25.6 20.48-43.52 43.52-43.52h934.4c25.6 0 43.52 20.48 43.52 43.52 2.56 197.12-110.080 368.64-273.92 453.12z" />
<glyph unicode="&#xe92a;" glyph-name="chuantupian" horiz-adv-x="1025" d="M928 722.368h-147.2l-76.8 121.92h-384l-76.8-121.92h-147.2c-32 0-96-30.464-96-90.56v-488.768c0-50.496 48-91.456 89.344-91.456h840.704c41.984 0 94.016 42.944 94.016 90.496v488.832c-0.064 30.4-32.064 91.456-96.064 91.456zM959.936 142.144c0-12.032-20.48-28.8-29.952-29.568h-840.512c-7.424 0.64-25.472 14.272-25.472 30.464v488.768c0 19.328 27.2 29.12 32 29.504h183.424l76.736 122.048h313.664l57.152-92.352 17.536-29.632h183.488c22.592 0 31.68-28.032 31.936-30.464v-488.768zM512 630.912c-123.776 0-224-95.552-224-213.376s100.288-213.376 224-213.376c123.648 0 224 95.488 224 213.376s-100.352 213.376-224 213.376zM512 265.024c-88.192 0-160 68.416-160 152.512s71.744 152.384 160 152.384 160-68.352 160-152.448-71.808-152.448-160-152.448z" />
<glyph unicode="&#xe92b;" glyph-name="25" d="M606.267 865.915c0 49.799-42.205 90.357-94.267 90.357-51.955 0-94.268-40.457-94.268-90.357 0-0.011 0-0.024 0-0.037 0-5.263 0.467-10.416 1.363-15.421l-0.078 0.527c-130.169-43.49-236.959-177.045-236.959-335.057v-124.402s0-179.16-45.917-180.721c-27.378 0-48.349-20.228-48.349-45.181 0-25.124 21.098-45.178 47.125-45.178h754.163c26.154 0 47.126 20.229 47.126 45.178 0 25.128-21.097 45.181-47.126 45.181-47.141 0-47.141 179.461-47.141 179.461v125.646c0 158.215-99.849 291.826-236.934 335.184 0.803 4.442 1.262 9.555 1.262 14.775 0 0.016 0 0.032 0 0.047v-0.002zM653.401 75.344c-0.142-74.927-62.855-135.617-141.402-135.617-78.008 0-141.263 60.44-141.403 135.617h282.805z" />
<glyph unicode="&#xe92c;" glyph-name="fasongyuying" d="M511.48 959.086c-280.832 0-510.604-229.772-510.604-510.606s229.772-510.608 510.606-510.608c280.832 0 510.606 229.774 510.606 510.608-0.002 280.834-229.776 510.606-510.608 510.606zM511.48-11.066c-255.302 0-459.544 204.242-459.544 459.546 0 255.302 204.242 459.544 459.544 459.544s459.546-204.24 459.546-459.544c0-255.304-204.242-459.546-459.546-459.546zM580.43 721.052l-45.42-45.486c0.104-0.082 0.148-0.148 0.272-0.232 125.496-125.602 125.496-329.282 0-454.878l45.38-45.508c150.576 150.728 150.576 395.148 0 545.874-0.090 0.060-0.126 0.166-0.232 0.23zM489.778 629.85c-0.057 0.091-0.135 0.163-0.229 0.21l-0.003 0.002-45.422-45.484c0.042-0.084 0.126-0.148 0.234-0.25 75.244-75.336 75.244-197.55 0-272.924l45.4-45.486c100.498 100.432 100.498 263.442 0.020 363.932zM398.704 539.094l-90.904-90.964 91.136-91.224c50.186 50.298 50.186 131.732 0 181.958-0.084 0.084-0.19 0.146-0.232 0.23z" />
<glyph unicode="&#xe92d;" glyph-name="yuying" d="M691.060 941.614c-11.191 11.991-26.379 18.386-41.568 18.386s-30.376-6.395-42.367-17.586c-11.191-11.191-17.586-26.379-17.586-42.367 0-15.188 6.395-30.376 17.586-41.568 108.715-114.311 169.468-259.797 169.468-410.879 0-153.48-61.552-302.164-168.668-410.080-11.191-11.191-17.586-26.379-17.586-42.367 0-15.188 6.395-30.376 17.586-41.568s26.379-17.586 42.367-17.586 30.376 6.395 42.367 17.586c130.298 132.696 203.041 307.76 203.041 494.813 0 186.254-72.743 361.318-204.64 493.215zM361.717 696.206c-23.981-23.981-23.981-59.953 0.799-84.734 44.765-39.969 70.345-99.922 70.345-163.872 0-58.354-26.379-119.906-70.345-164.671-11.991-10.392-18.386-25.58-18.386-41.568 0-15.188 6.395-30.376 17.586-41.568 11.991-11.991 27.179-18.386 42.367-18.386s29.577 5.596 41.568 17.586c67.947 63.151 106.317 154.279 106.317 249.405 0 88.731-39.969 181.458-106.317 248.606-23.981 23.182-59.953 23.182-83.934-0.799zM188.253 507.553c-35.173 0-59.953-24.781-59.953-59.953s24.781-59.953 59.953-59.953 59.953 24.781 59.953 59.953c-0.799 35.972-24.781 59.953-59.953 59.953z" />
<glyph unicode="&#xe92e;" glyph-name="tixianziliao" d="M834.696 958.402h-426.534c-27.158 0-51.12-22.365-51.12-51.12v-170.933c0-28.755-22.365-51.12-51.12-51.12h-169.335c-28.755 0-51.12-22.365-51.12-51.12v-595.869c0-55.913 46.328-102.24 102.24-102.24h646.989c55.913 0 102.24 46.328 102.24 102.24v817.922c0 57.51-46.328 102.24-102.24 102.24zM724.468 191.601h-426.534c-14.378 0-25.56 11.183-25.56 25.56s11.183 25.56 25.56 25.56h426.534c14.378 0 25.56-11.183 25.56-25.56 0-12.78-12.78-25.56-25.56-25.56zM724.468 362.534h-426.534c-14.378 0-25.56 11.183-25.56 25.56s11.183 25.56 25.56 25.56h426.534c14.378 0 25.56-11.183 25.56-25.56 0-12.78-12.78-25.56-25.56-25.56zM724.468 533.466h-273.173c-14.378 0-25.56 11.183-25.56 25.56s11.183 25.56 25.56 25.56h273.173c14.378 0 25.56-11.183 25.56-25.56s-12.78-25.56-25.56-25.56zM122.209 736.349h130.995c28.755 0 51.12 22.365 51.12 51.12v138.983c0 19.17-9.585 23.963-23.963 9.585l-170.933-175.725c-11.183-12.78-6.39-23.963 12.78-23.963z" />
<glyph unicode="&#xe930;" glyph-name="xingxi" horiz-adv-x="1065" d="M270.402-64h-3.643c-26.865 1.756-47.99 23.977-47.99 51.131 0 0.857 0.021 1.709 0.063 2.556l-0.005-0.119v123.987c-137.251 89.774-218.827 230.554-218.827 378.962 0 257.765 239.093 467.483 533.348 467.483 153.702 0 299.948-58.407 401.050-160.192 84.935-85.39 131.273-195.43 130.476-309.284 0-257.594-239.093-467.312-533.291-467.312-2.972-0.056-6.478-0.088-9.991-0.088-33.024 0-65.392 2.806-96.88 8.194l3.378-0.478-133.607-88.863c-6.938-3.398-15.070-5.475-23.665-5.691l-0.074-0.001zM533.348 914.459c-268.979 0-487.806-189.282-487.806-421.942 0-136.624 77.762-266.133 208.068-347.254l10.759-6.717v-151.084c-0.007-0.105-0.011-0.228-0.011-0.351 0-3.028 2.364-5.503 5.346-5.682l0.016-0.001c1.266 0.069 2.45 0.335 3.55 0.767l-0.077-0.027 144.936 96.776 9.051-1.708c28.454-5.449 61.181-8.566 94.637-8.566 3.314 0 6.621 0.031 9.921 0.092l-0.496-0.007c269.321 0 488.148 189.282 488.148 421.942 0.74 101.785-40.93 200.098-117.269 277.006-92.62 93.246-227.024 146.757-368.772 146.757zM303.819 396.766c-45.996 0-83.284 37.288-83.284 83.284s37.288 83.284 83.284 83.284v0c0.001 0 0.002 0 0.002 0 45.776 0 82.927-36.931 83.281-82.624v-0.034c0.039-0.922 0.061-2.003 0.061-3.090 0-21.102-8.406-40.242-22.052-54.252l0.016 0.017c-15.395-16.304-37.125-26.484-61.235-26.585h-0.019zM303.819 517.792v0c-20.827-0.065-37.686-16.963-37.686-37.799 0 0 0 0 0 0v0c0.065-20.807 16.931-37.653 37.739-37.686h0.003c11.115 0.087 21.11 4.812 28.159 12.332l0.020 0.021c5.886 5.909 9.525 14.059 9.525 23.059 0 0.379-0.006 0.756-0.019 1.132l0.001-0.055v1.252c-0.032 20.832-16.911 37.71-37.739 37.742h-0.003zM536.877 396.823c-45.965 0-83.227 37.262-83.227 83.227s37.262 83.227 83.227 83.227c45.965 0 83.227-37.262 83.227-83.227v0c-0.065-45.939-37.288-83.162-83.221-83.227h-0.006zM536.877 517.735c-20.813 0-37.686-16.872-37.686-37.686s16.872-37.686 37.686-37.686c20.813 0 37.686 16.872 37.686 37.686v0c-0.032 20.8-16.885 37.653-37.683 37.686h-0.003zM761.055 396.766c-45.996 0-83.284 37.288-83.284 83.284s37.288 83.284 83.284 83.284c45.996 0 83.284-37.288 83.284-83.284v0c-0.032-45.983-37.301-83.252-83.281-83.284h-0.003zM761.055 517.792c-20.845 0-37.742-16.898-37.742-37.742s16.898-37.742 37.742-37.742c20.845 0 37.742 16.898 37.742 37.742v0c0 20.845-16.898 37.742-37.742 37.742v0z" />
<glyph unicode="&#xe931;" glyph-name="xiang-you" d="M677.319 447.26l-390.258 390.229c-5.144 5.148-8.326 12.257-8.326 20.11 0 15.713 12.738 28.45 28.45 28.45 7.86 0 14.975-3.187 20.124-8.34l410.34-410.34c5.146-5.147 8.328-12.257 8.328-20.11s-3.183-14.963-8.328-20.11l-410.34-410.368c-5.11-4.94-12.080-7.985-19.761-7.985-15.709 0-28.444 12.735-28.444 28.444 0 7.681 3.044 14.651 7.992 19.769l390.221 390.221z" />
<glyph unicode="&#xe932;" glyph-name="baoyou" d="M871.892 901.486h-313.051c-84.119-0.448-152.138-68.743-152.138-152.925 0-0.206 0-0.413 0.001-0.619v0.032-4.359h-154.214c-0.109 0-0.238 0-0.368 0-53.962 0-101.31-28.317-127.995-70.903l-0.369-0.632-123.758-197.661v-353.309h103.687c3.603-70.601 61.725-126.482 132.899-126.482 70.638 0 128.42 55.042 132.795 124.577l0.019 0.384c2.241-0.724 4.82-1.141 7.496-1.141 0.018 0 0.037 0 0.055 0h80.864c0.037 0 0.081 0 0.124 0 4.222 0 8.207 1.016 11.724 2.818l-0.145-0.068h187.246c3.45-70.732 61.637-126.774 132.913-126.774 71.812 0 130.336 56.887 132.969 128.055l0.007 0.24c57.907 10.105 101.386 59.932 101.522 119.94v505.315c0.001 0.148 0.001 0.324 0.001 0.499 0 84.251-68.091 152.598-152.245 153.013h-0.040zM236.603 48.903c-0.217-0.002-0.474-0.003-0.731-0.003-44.144 0-79.931 35.786-79.931 79.931s35.786 79.931 79.931 79.931c44.143 0 79.929-35.784 79.931-79.927v0c0-0.061 0-0.134 0-0.207 0-43.846-35.395-79.426-79.171-79.724h-0.028zM363.315 170.057c-17.4 54.432-67.539 93.155-126.721 93.155-57.164 0-105.89-36.126-124.593-86.793l-0.297-0.92h-57.783v283.209l115.419 184.32c17.51 27.896 48.104 46.168 82.966 46.168 0.064 0 0.129 0 0.193 0h154.438v-515.365h-29.842c-0.031 0-0.068 0-0.104 0-5.013 0-9.696-1.415-13.671-3.868l0.112 0.065zM789.445 48.903c-0.2-0.002-0.436-0.003-0.673-0.003-44.144 0-79.931 35.786-79.931 79.931s35.786 79.931 79.931 79.931c44.143 0 79.929-35.784 79.931-79.927v0c0-0.079 0-0.171 0-0.264 0-43.855-35.435-79.434-79.236-79.666h-0.022zM970.138 242.995c0-0.042 0-0.092 0-0.142 0-33.267-24.067-60.913-55.739-66.476l-0.405-0.059c-19.249 51.086-67.72 86.767-124.524 86.767-57.122 0-105.816-36.081-124.537-86.696l-0.298-0.919h-203.864v572.504c-0.001 0.14-0.001 0.305-0.001 0.47 0 54.329 43.876 98.41 98.127 98.741h313.083c54.318-0.348 98.217-44.462 98.217-98.829 0-0.104 0-0.207 0-0.31v0.016zM296.375 635.246c-15.084-0.032-27.32-12.176-27.502-27.221v-108.561h-107.491c-14.955-0.344-26.947-12.548-26.947-27.553 0-0.074 0-0.149 0.001-0.223v0.011-0.234c0.013-14.973 11.99-27.145 26.886-27.472l0.030-0.001h162.436v164.074c-0.182 15.017-12.398 27.121-27.441 27.121-0.001 0-0.001 0-0.002 0v0z" />
<glyph unicode="&#xe933;" glyph-name="rengmingbi" d="M853.752 449.553c0.5-0.021 1.087-0.033 1.677-0.033 23.516 0 42.579 19.063 42.579 42.579s-19.063 42.579-42.579 42.579c-0.59 0-1.177-0.012-1.761-0.036l0.084 0.003h-296.233v24.939l327.019 327.019c8.545 7.815 13.885 19.013 13.885 31.458 0 23.516-19.063 42.579-42.579 42.579-12.445 0-23.643-5.339-31.428-13.852l-0.029-0.033-309.413-309.347-309.413 309.347c-7.809 8.542-19.001 13.88-31.439 13.88-23.497 0-42.546-19.048-42.546-42.546 0-12.463 5.359-23.675 13.898-31.456l0.034-0.030 327.019-327.019v-24.939h-296.233c-0.5 0.021-1.087 0.033-1.677 0.033-23.516 0-42.579-19.063-42.579-42.579s19.063-42.579 42.579-42.579c0.59 0 1.177 0.012 1.761 0.036l-0.084-0.003h296.167v-170.149h-296.233c-0.5 0.021-1.087 0.033-1.677 0.033-23.516 0-42.579-19.063-42.579-42.579s19.063-42.579 42.579-42.579c0.59 0 1.177 0.012 1.761 0.036l-0.084-0.003h296.167v-211.307c-0.021-0.5-0.033-1.087-0.033-1.677 0-23.516 19.063-42.579 42.579-42.579s42.579 19.063 42.579 42.579c0 0.59-0.012 1.177-0.036 1.761l0.003-0.084v211.406h296.233c0.5-0.021 1.087-0.033 1.677-0.033 23.516 0 42.579 19.063 42.579 42.579s-19.063 42.579-42.579 42.579c-0.59 0-1.177-0.012-1.761-0.036l0.084 0.003h-296.233v170.050z" />
<glyph unicode="&#xe934;" glyph-name="jianhao" d="M512-64c-282.77 0-512 229.23-512 512s229.23 512 512 512c282.77 0 512-229.23 512-512v0c0-282.77-229.23-512-512-512v0zM512 886.835c-0.015 0-0.033 0-0.051 0-242.362 0-438.835-196.473-438.835-438.835s196.473-438.835 438.835-438.835c242.362 0 438.835 196.473 438.835 438.835v0c-0.029 242.332-196.456 438.777-438.778 438.835h-0.006zM731.648 411.443h-439.296c-20.19 0-36.557 16.367-36.557 36.557s16.367 36.557 36.557 36.557v0h439.296c20.19 0 36.557-16.367 36.557-36.557s-16.367-36.557-36.557-36.557v0z" />
<glyph unicode="&#xe935;" glyph-name="yueshoyi" d="M918.937 353.216c-40.796 92.69-114.588 181.681-219.377 264.872v57.994l104.389 131.886c3.4 3.9 6.399 8.599 9.199 13.099l5.499 6.999v2.8c13.999 29.097 10.099 62.093-10.699 84.391-13.499 14.398-32.197 22.298-52.794 22.298-18.098 0-36.296-6.299-50.795-17.298l-91.090-65.893c-58.194 105.589-88.891 105.589-101.489 105.589-11.999 0-42.596 0-100.889-105.589l-90.59 65.493c-15.098 11.399-33.297 17.698-51.395 17.698-20.598 0-39.296-7.899-52.794-22.298-22.498-23.997-25.197-60.594-6.999-91.29l1.8-2.9c3.2-5.099 5.899-9.299 8.399-12.099l105.189-132.886v-58.094c-250.874-199.179-251.374-379.96-250.874-396.358 0.1-73.292 25.597-134.286 75.692-181.381 34.496-32.497 80.991-57.894 137.386-75.292 21.498-7.299 47.595-13.399 77.492-18.198 5.499-0.9 10.899-1.8 16.098-2.5 20.698-2.9 42.496-4.999 64.193-6.199 21.998-1.4 44.695-2.1 67.493-2.1s45.495 0.7 67.193 2.1c22.098 1.2 43.795 3.3 64.493 6.199 5.199 0.7 10.599 1.6 15.898 2.5 30.097 4.799 56.294 10.899 76.892 17.898 57.194 17.598 103.689 43.095 138.285 75.492 50.095 47.095 75.592 108.089 75.692 181.381 0.3 8.899 0.4 59.094-31.497 131.686zM265.806 847.164c-1.5 1.8-3.1 4.7-4.6 6.999v0 0c-4.5 7.299-4.899 15.598-1 19.798 2.5 2.7 6.199 3.3 8.799 3.3 4.999 0 10.299-1.9 15.598-5.899l108.189-78.192c4.4-3.2 13.499-8.499 25.597-8.499 12.299 0 23.398 5.399 31.397 15.298l3.3 5.099c22.198 42.796 46.095 77.992 59.194 90.99 12.999-12.999 36.996-48.195 59.094-90.99l3.3-5.099c7.999-9.899 19.098-15.298 31.397-15.298 11.999 0 21.198 5.299 25.597 8.499l108.689 78.592c4.7 3.5 9.999 5.499 14.998 5.499 2.6 0 6.199-0.6 8.799-3.3 3.9-4.2 3.5-12.499-1-19.798l-0.1-0.2c-1.4-2.3-3.1-5.099-5.199-7.699l-102.089-128.886h-286.97l-102.989 129.786zM639.267 657.184v-17.698h-254.573v17.698h254.573zM890.24 223.73v-1.6c0-56.194-19.098-102.689-56.694-138.086-27.797-26.097-66.393-46.895-115.588-62.093-18.198-6.199-40.996-11.499-67.993-15.798-4.999-0.8-9.899-1.6-14.598-2.3-18.998-2.7-38.996-4.6-59.594-5.699-41.396-2.6-85.591-2.6-127.587 0-20.298 1.1-40.296 3-59.294 5.699-4.7 0.7-9.699 1.4-14.798 2.3-26.697 4.2-49.495 9.499-68.593 15.998-48.395 14.898-86.991 35.696-114.788 61.794-37.596 35.396-56.694 81.891-56.794 139.585 0 0.4-1.6 41.896 26.797 105.989 26.297 59.394 84.491 150.984 212.178 249.574h278.571c127.587-98.59 185.78-190.080 212.078-249.474 28.297-63.993 26.697-105.489 26.697-105.889zM511.98 360.915l-56.294 98.39h-69.393l80.092-139.685h-64.793v-60.194h80.991v-24.397h-80.991v-60.194h80.991v-56.994h60.194v56.994h77.792v60.194h-77.792v24.397h77.792v60.194h-62.793l80.092 139.685h-69.393l-56.494-98.39z" />
<glyph unicode="&#xe936;" glyph-name="zuotianshoyi" d="M320 768h83.136l131.648-252.8 133.248 252.8h78.656l-156.16-267.52h123.008v-59.2h-143.36v-81.472h143.36v-59.84h-143.36v-118.656h-73.728v118.656h-148.608v59.84h148.608v81.472h-148.608v59.2h126.784zM960 448c0 247.424-200.576 448-448 448s-448-200.576-448-448v0c0-247.424 200.576-448 448-448s448 200.576 448 448v0zM1024 448c0-282.77-229.23-512-512-512s-512 229.23-512 512v0c0 282.77 229.23 512 512 512s512-229.23 512-512v0z" />
<glyph unicode="&#xe937;" glyph-name="sosuo" d="M955.392 59.136l-161.254 161.203c60.079 71.302 96.588 164.182 96.588 265.589 0 0.103 0 0.206 0 0.309v-0.016c0 229.401-186.905 416-416.614 416s-416.614-186.599-416.614-416c0-229.376 186.905-416 416.614-416 101.274 0 194.176 36.352 266.496 96.563l161.203-161.229c6.841-6.879 16.312-11.137 26.777-11.137s19.937 4.258 26.776 11.135l0.002 0.002c6.861 6.849 11.105 16.318 11.105 26.778s-4.244 19.928-11.104 26.777v0zM474.112 145.971c-187.93 0-340.864 152.627-340.864 340.25 0 187.648 152.934 340.275 340.864 340.275 187.955 0 340.864-152.653 340.864-340.275s-152.909-340.251-340.864-340.251z" />
<glyph unicode="&#xe938;" glyph-name="miandarao" horiz-adv-x="1063" d="M948.603 135.68c-4.506 85.755-47.752 160.557-112.429 207.747l-0.78 0.543v229.831c-2.26 134.377-98.723 245.579-226.085 270.539l-1.774 0.29v5.272c-2.303 61.231-52.497 109.996-114.081 109.996s-111.778-48.765-114.075-109.787l-0.006-0.209v-5.272c-129.092-25.279-225.512-136.451-227.78-270.549l-0.003-0.242v-229.831c-65.471-47.726-108.731-122.529-113.218-207.61l-0.029-0.679h113.209v-0.872h683.842v0.721h113.209zM469.447-64h28.331c0.468-0.005 1.021-0.009 1.575-0.009 72.495 0 132.554 53.247 143.2 122.765l0.102 0.807h-297.946c10.731-70.322 70.781-123.572 143.269-123.572 0.565 0 1.13 0.003 1.694 0.010l-0.086-0.001zM76.572 908.345l956.34-747.596c16.505-12.903 19.426-36.743 6.523-53.248s-36.743-19.426-53.248-6.523l-956.34 747.596c-16.505 12.903-19.426 36.743-6.523 53.248s36.743 19.426 53.248 6.523z" />
<glyph unicode="&#xe939;" glyph-name="13" horiz-adv-x="1065" d="M270.402-64h-3.643c-26.865 1.756-47.99 23.977-47.99 51.131 0 0.857 0.021 1.709 0.063 2.556l-0.005-0.119v123.987c-137.251 89.774-218.827 230.554-218.827 378.962 0 257.765 239.093 467.483 533.348 467.483 153.702 0 299.948-58.407 401.050-160.192 84.935-85.39 131.273-195.43 130.476-309.284 0-257.594-239.093-467.312-533.291-467.312-2.972-0.056-6.478-0.088-9.991-0.088-33.024 0-65.392 2.806-96.88 8.194l3.378-0.478-133.607-88.863c-6.938-3.398-15.070-5.475-23.665-5.691l-0.074-0.001zM533.348 914.459c-268.979 0-487.806-189.282-487.806-421.942 0-136.624 77.762-266.133 208.068-347.254l10.759-6.717v-151.084c-0.007-0.105-0.011-0.228-0.011-0.351 0-3.028 2.364-5.503 5.346-5.682l0.016-0.001c1.266 0.069 2.45 0.335 3.55 0.767l-0.077-0.027 144.936 96.776 9.051-1.708c28.454-5.449 61.181-8.566 94.637-8.566 3.314 0 6.621 0.031 9.921 0.092l-0.496-0.007c269.321 0 488.148 189.282 488.148 421.942 0.74 101.785-40.93 200.098-117.269 277.006-92.62 93.246-227.024 146.757-368.772 146.757zM303.819 396.766c-45.996 0-83.284 37.288-83.284 83.284s37.288 83.284 83.284 83.284v0c0.001 0 0.002 0 0.002 0 45.776 0 82.927-36.931 83.281-82.624v-0.034c0.039-0.922 0.061-2.003 0.061-3.090 0-21.102-8.406-40.242-22.052-54.252l0.016 0.017c-15.395-16.304-37.125-26.484-61.235-26.585h-0.019zM303.819 517.792v0c-20.827-0.065-37.686-16.963-37.686-37.799 0 0 0 0 0 0v0c0.065-20.807 16.931-37.653 37.739-37.686h0.003c11.115 0.087 21.11 4.812 28.159 12.332l0.020 0.021c5.886 5.909 9.525 14.059 9.525 23.059 0 0.379-0.006 0.756-0.019 1.132l0.001-0.055v1.252c-0.032 20.832-16.911 37.71-37.739 37.742h-0.003zM536.877 396.823c-45.965 0-83.227 37.262-83.227 83.227s37.262 83.227 83.227 83.227c45.965 0 83.227-37.262 83.227-83.227v0c-0.065-45.939-37.288-83.162-83.221-83.227h-0.006zM536.877 517.735c-20.813 0-37.686-16.872-37.686-37.686s16.872-37.686 37.686-37.686c20.813 0 37.686 16.872 37.686 37.686v0c-0.032 20.8-16.885 37.653-37.683 37.686h-0.003zM761.055 396.766c-45.996 0-83.284 37.288-83.284 83.284s37.288 83.284 83.284 83.284c45.996 0 83.284-37.288 83.284-83.284v0c-0.032-45.983-37.301-83.252-83.281-83.284h-0.003zM761.055 517.792c-20.845 0-37.742-16.898-37.742-37.742s16.898-37.742 37.742-37.742c20.845 0 37.742 16.898 37.742 37.742v0c0 20.845-16.898 37.742-37.742 37.742v0z" />
<glyph unicode="&#xe93b;" glyph-name="-11" d="M965.5 579.773h-89.782c-4.269 0-8.197-1.271-11.718-3.172l-40.476 121.909c-12.951 69.36-61.758 102.803-121.745 102.803h-380.22c-68.858 0-110.651-44.924-121.745-102.736l-40.583-122.323c-3.693 2.14-7.882 3.52-12.432 3.52h-89.802c-13.797 0-24.998-11.181-24.998-25.018v-21.693c0-13.796 11.201-24.998 24.998-24.998l33.998-5.808c-10.732-20.981-16.86-44.985-16.86-72.914l-12.586-143.9c0-4.169 0.306-8.418 0.823-12.693-0.476-2.61-0.823-5.332-0.823-8.117v-173.116c0-24.63 19.993-44.597 44.623-44.597h68.103c24.651 0 44.617 19.966 44.617 44.597v55.646h585.525v-55.645c0-24.63 19.972-44.597 44.623-44.597h68.105c24.63 0 44.618 19.966 44.618 44.597v173.116c0 2.789-0.342 5.507-0.823 8.117 0.496 4.275 0.823 8.525 0.823 12.693l-12.586 143.894c0 28.001-6.15 52.025-16.922 73.073l33.243 5.655c13.817 0 24.998 11.201 24.998 24.998v21.693c0.004 13.837-11.178 25.017-24.995 25.017zM229.838 605.393l29.723 79.11 0.414 1.854c2.957 15.998 9.562 18.848 19.317 31.2h465.312c9.843-12.693 15.979-15.916 18.695-31.027l30.197-81.139 11.054-44.077c-2.509-32.251-41.257-57.724-73.502-57.724h-438.759c-32.272 0-71.020 25.472-73.523 57.724l11.075 44.077zM250.668 229.188c-37.324 0-67.562 30.244-67.562 67.567s30.238 67.562 67.562 67.562 67.567-30.238 67.567-67.562-30.243-67.567-67.567-67.567zM628.022 279.031h-0.006c0-11.115-9.001-20.095-20.1-20.095h-189.543c-11.093 0-20.1 8.98-20.1 20.095v56.471c0 11.093 9.001 20.075 20.1 20.075h189.545c11.099 0 20.105-8.98 20.105-20.075v-56.471zM772.646 229.188c-37.324 0-67.586 30.244-67.586 67.567s30.263 67.562 67.586 67.562c37.324 0 67.562-30.238 67.562-67.562 0.006-37.324-30.238-67.567-67.562-67.567z" />
<glyph unicode="&#xe93c;" glyph-name="uniE93C" d="M923.639 549.863c-88.841 79.152-283.45 248.379-372.291 327.548-25.726 22.906-59.802 22.845-85.229 0.19-88.878-79.198-287.458-245.061-372.512-327.738-22.42-21.801-14.979-50.426 13.375-50.426h-0.809c31.881 0 51.547-1.549 51.547-32.531v-407.633c0-27.849 19.693-58.228 48.342-58.228h621.805c28.647 0 28.657 30.379 28.657 58.228v407.633c0 30.462 25.237 32.531 53.337 32.531h0.811c24.62 0 31.807 33.647 12.968 50.426zM507.122 117.497c-128.646 0-232.935 104.287-232.935 232.933 0 128.65 104.289 232.937 232.935 232.937s232.935-104.287 232.935-232.937c0-128.646-104.288-232.933-232.935-232.933zM243.624 715.371c4.434 6.61 0 35.716 0 35.716 0 20.896-14.857 35.716-36.344 35.716h-18.173c-21.488 0-36.344-32.682-36.344-53.573v-89.294c0-0.167 85.181 62.968 90.86 71.434zM507.122 525.135c-96.485 0-174.702-78.219-174.702-174.705 0-96.481 78.215-174.7 174.702-174.7 96.483 0 174.702 78.217 174.702 174.7 0 96.485-78.217 174.705-174.702 174.705z" />
</font>
</defs>
</svg>
